<?xml version="1.0" encoding="UTF-8" standalone="no"?>
<svg
   xmlns:svg="http://www.w3.org/2000/svg"
   xmlns="http://www.w3.org/2000/svg"
   xmlns:sodipodi="http://sodipodi.sourceforge.net/DTD/sodipodi-0.dtd"
   xmlns:inkscape="http://www.inkscape.org/namespaces/inkscape"
   sodipodi:docname="logoCorporativoColor2.svg"
   inkscape:version="1.1-dev (cc5ed13, 2020-07-22)"
   id="svg1184"
   version="1.1"
   viewBox="0 0 76 24"
   height="24mm"
   width="76mm">
  <defs
     id="defs1180" />
  <sodipodi:namedview
     inkscape:window-maximized="0"
     inkscape:window-y="0"
     inkscape:window-x="90"
     inkscape:window-height="728"
     inkscape:window-width="1260"
     width="76mm"
     showgrid="false"
     inkscape:current-layer="layer1"
     inkscape:document-units="mm"
     inkscape:cy="48.487322"
     inkscape:cx="143.94674"
     inkscape:zoom="1.979899"
     inkscape:pageshadow="2"
     inkscape:pageopacity="0.0"
     borderopacity="1.0"
     bordercolor="#666666"
     pagecolor="#ffffff"
     id="base" />
  <g
     id="layer1"
     inkscape:groupmode="layer"
     inkscape:label="Capa 1">
    <path
       class="logo-fill l-agro"
       d="M 15.553887,15.605463 12.070799,7.7056672 c -0.01795,-0.053899 -0.107724,-0.053899 -0.125678,0 L 8.4799868,15.605463 c -0.017954,0.0539 0.017954,0.107723 0.071815,0.107723 H 9.772679 c 0.035908,0 0.053862,-0.01792 0.071815,-0.03591 l 2.100625,-4.668056 c 0.01795,-0.0539 0.107725,-0.0539 0.125678,0 l 2.136534,4.65011 c 0.01795,0.01792 0.03591,0.03591 0.07182,0.03591 h 1.220876 c 0.03591,0 0.07182,-0.0539 0.05386,-0.08976 z"
       id="path13340"
       style="fill:#00ac4e;fill-opacity:1;stroke-width:0.179541" />
    <path
       class="logo-fill l-agro"
       d="m 28.983525,12.894445 c -0.01795,-0.01792 0,-0.0539 0.01795,-0.07181 0.233402,-0.143631 0.430897,-0.305223 0.592484,-0.484762 0.17954,-0.197493 0.323172,-0.394992 0.430897,-0.592485 0.107725,-0.215446 0.179541,-0.412939 0.233403,-0.628392 0.05386,-0.215447 0.07182,-0.412939 0.07182,-0.610439 0,-0.251354 -0.03591,-0.484754 -0.107725,-0.7540699 C 30.150539,9.5011277 30.042813,9.2677201 29.899181,9.0343199 29.755548,8.8009197 29.576008,8.6034198 29.342605,8.4059273 29.109202,8.2084348 28.821937,8.064804 28.498764,7.9391195 c -0.03591,-0.017917 -0.08977,-0.035908 -0.161586,-0.053824 -0.07182,-0.017991 -0.143633,-0.035908 -0.21545,-0.053899 -0.07182,-0.017991 -0.125677,-0.035908 -0.197494,-0.035908 -0.05386,-0.017917 -0.08977,-0.017917 -0.107724,-0.017917 h -3.590813 c -0.03591,0 -0.05386,0.017917 -0.05386,0.053899 v 7.7920652 c 0,0.03591 0.01795,0.0539 0.05386,0.0539 h 1.256785 c 0.03591,0 0.05386,-0.01792 0.05386,-0.0539 v -2.36994 c 0,-0.03591 0.01795,-0.0539 0.05386,-0.0539 h 1.939042 c 0.01795,0 0.03591,0.01799 0.05386,0.03591 l 1.436325,2.459709 c 0.01795,0.01792 0.03591,0.03591 0.05386,0.03591 h 1.436323 c 0.03591,0 0.07182,-0.0539 0.05386,-0.08977 z m -0.143632,-1.956993 c -0.05386,0.161584 -0.143633,0.305215 -0.251357,0.4309 -0.107724,0.125677 -0.233403,0.2334 -0.377035,0.323169 -0.143633,0.08977 -0.287265,0.125677 -0.466805,0.125677 h -2.154488 c -0.03591,0 -0.05386,-0.01792 -0.05386,-0.0539 V 9.2317752 c 0,-0.035908 0.01795,-0.053899 0.05386,-0.053899 h 2.154488 c 0.03591,0 0.107724,0.017991 0.17954,0.035908 0.08977,0.017917 0.161587,0.053899 0.21545,0.071816 0.26931,0.1256844 0.466805,0.3052231 0.592483,0.5206694 0.125679,0.2154534 0.17954,0.4488544 0.17954,0.6822544 0.01795,0.143631 -0.01795,0.287269 -0.07182,0.448854 z"
       id="path13342"
       style="fill:#00ac4e;fill-opacity:1;stroke-width:0.179541" />
    <path
       class="logo-fill l-agro"
       d="M 38.876216,10.165428 C 38.660763,9.6627124 38.391455,9.2318123 38.014416,8.8547812 37.655339,8.4777428 37.206485,8.190481 36.721727,7.9750272 36.219012,7.7595809 35.680391,7.6518577 35.10586,7.6518577 c -0.592483,0 -1.131105,0.1077232 -1.615865,0.3231695 -0.502714,0.2154538 -0.933612,0.5206694 -1.310646,0.879754 -0.359082,0.3770311 -0.664301,0.8079312 -0.861795,1.3106468 -0.21545,0.502715 -0.323174,1.023378 -0.323174,1.579955 0,0.556577 0.107724,1.0952 0.323174,1.579962 0.197494,0.502708 0.502713,0.933608 0.861795,1.310646 0.377034,0.377032 0.807932,0.682255 1.310646,0.897701 0.502715,0.215446 1.041336,0.323169 1.615865,0.323169 0.556576,0 1.077244,-0.107723 1.579958,-0.323169 0.484759,-0.197493 0.933614,-0.484762 1.292691,-0.861793 0.377038,-0.377038 0.6643,-0.807938 0.879753,-1.310647 0.215447,-0.502715 0.32317,-1.041338 0.32317,-1.615869 0,-0.538624 -0.107723,-1.07724 -0.305216,-1.579955 z m -1.292693,2.657201 c -0.161592,0.32317 -0.359083,0.610439 -0.610438,0.843839 -0.251358,0.2334 -0.538624,0.4309 -0.861797,0.556577 -0.323172,0.125677 -0.664299,0.197493 -1.005428,0.197493 -0.377035,0 -0.718162,-0.07182 -1.041334,-0.215447 -0.323173,-0.143631 -0.610439,-0.34113 -0.861796,-0.592484 -0.251356,-0.251355 -0.448852,-0.52067 -0.592483,-0.843839 -0.143634,-0.323177 -0.21545,-0.664301 -0.21545,-1.023385 0,-0.359078 0.07182,-0.700208 0.21545,-1.023378 0.143631,-0.323177 0.341127,-0.610439 0.592483,-0.8618001 0.251357,-0.2334002 0.538622,-0.4308927 0.861796,-0.574531 0.323172,-0.1436309 0.682254,-0.2154463 1.041334,-0.2154463 0.377036,0 0.718163,0.071815 1.041336,0.2154463 0.323174,0.1436383 0.610438,0.3411308 0.861797,0.574531 0.251353,0.2513611 0.448847,0.5386231 0.592485,0.8618001 0.14363,0.32317 0.215446,0.6643 0.215446,1.023378 -0.01792,0.394992 -0.08977,0.736115 -0.233401,1.077246 z"
       id="path13344"
       style="fill:#00ac4e;fill-opacity:1;stroke-width:0.179541" />
    <path
       class="logo-fill l-agro"
       d="m 19.162653,13.091937 h 2.477661 c 0.05386,0 0.07181,0.05382 0.05386,0.08977 -0.107724,0.1975 -0.233403,0.359085 -0.377035,0.502716 -0.197495,0.197492 -0.412943,0.341131 -0.628392,0.448854 -0.215449,0.107723 -0.448852,0.179538 -0.6643,0.2334 -0.21545,0.03591 -0.412944,0.0539 -0.592484,0.0539 -0.359082,0 -0.700209,-0.07181 -1.023382,-0.197493 -0.323171,-0.14363 -0.610437,-0.323177 -0.861794,-0.574531 -0.251356,-0.251354 -0.448851,-0.520669 -0.592483,-0.843838 -0.143633,-0.323177 -0.215449,-0.664301 -0.215449,-1.041339 0,-0.377031 0.07181,-0.718162 0.215449,-1.041332 0.143632,-0.323177 0.341127,-0.610438 0.592483,-0.843846 0.251357,-0.2334002 0.538623,-0.4308927 0.861796,-0.574531 0.323172,-0.1436309 0.664299,-0.2154464 1.023381,-0.2154464 0.39499,0 0.772024,0.071816 1.131106,0.2334076 0.35908,0.1436309 0.700208,0.4308927 1.059289,0.8797468 0.01795,0.01792 0.03591,0.01792 0.05386,0.01792 h 1.454278 c 0.05386,0 0.07182,-0.0539 0.05386,-0.08977 C 23.004821,9.6986202 22.771418,9.3215891 22.484153,9.016366 22.178933,8.6931965 21.855761,8.4238812 21.496679,8.2263887 21.137598,8.0288962 20.778517,7.8852579 20.419436,7.7954886 c -0.359082,-0.089769 -0.682255,-0.125677 -0.987474,-0.125677 -0.574529,0 -1.113152,0.1077231 -1.615865,0.3231769 -0.502714,0.2154463 -0.933612,0.520662 -1.310646,0.8797466 -0.377036,0.3770311 -0.664301,0.8079312 -0.861795,1.3106469 -0.215449,0.502715 -0.30522,1.023377 -0.30522,1.579955 0,0.556577 0.107725,1.0952 0.30522,1.579962 0.215448,0.502708 0.502713,0.933608 0.861795,1.310646 0.377034,0.377031 0.807932,0.682254 1.310646,0.897701 0.502713,0.215446 1.041336,0.323169 1.615865,0.323169 0.215449,0 0.430897,-0.01792 0.664301,-0.05382 0.233402,-0.03591 0.466805,-0.08977 0.682254,-0.161584 0.233403,-0.07181 0.448851,-0.179539 0.682254,-0.305216 0.215449,-0.125684 0.430898,-0.287269 0.628392,-0.466808 0,0 1.472233,-1.0952 1.220877,-3.124009 0,-0.03591 -0.03591,-0.0539 -0.07182,-0.0539 h -4.075571 c -0.03591,0 -0.07181,0.03591 -0.07181,0.07182 v 1.256785 c 0,0.03591 0.03591,0.0539 0.07181,0.0539 z"
       id="path13346"
       style="fill:#00ac4e;fill-opacity:1;stroke-width:0.179541" />
    <path
       class="logo-fill l-savia"
       d="M 68.17725,15.605507 64.694155,7.7057193 c -0.01792,-0.053899 -0.107723,-0.053899 -0.125677,0 l -3.465132,7.8997877 c -0.01792,0.0539 0.01799,0.107724 0.07182,0.107724 h 1.220877 c 0.03591,0 0.0539,-0.01792 0.07182,-0.03591 l 2.118578,-4.650102 c 0.01792,-0.0539 0.107722,-0.0539 0.125677,0 l 2.136539,4.650102 c 0.01792,0.01799 0.03591,0.03591 0.07182,0.03591 h 1.220877 c 0.01792,-0.01792 0.0539,-0.07182 0.03591,-0.107724 z"
       id="path13348"
       style="fill:#005baa;fill-opacity:1;stroke-width:0.179541" />
    <path
       class="logo-fill l-savia"
       d="M 52.000635,7.9032118 55.483728,15.803 c 0.01799,0.0539 0.107724,0.0539 0.125678,0 l 3.465132,-7.8997882 c 0.01792,-0.053899 -0.01799,-0.1077232 -0.07182,-0.1077232 h -1.220873 c -0.03591,0 -0.0539,0.017917 -0.07182,0.035908 l -2.118573,4.6501017 c -0.01799,0.0539 -0.107724,0.0539 -0.125678,0 L 53.347189,7.8493502 c -0.01799,-0.017917 -0.03591,-0.035908 -0.07182,-0.035908 H 52.05449 c -0.03591,0 -0.07182,0.053899 -0.0539,0.089769 z"
       id="path13350"
       style="fill:#005baa;fill-opacity:1;stroke-width:0.179541" />
    <path
       class="logo-fill l-savia"
       d="m 61.049485,7.8313963 -3.303549,7.8279727 c 0,0.01792 0,0.03591 0.03591,0.03591 h 1.310648 c 0.01792,0 0.01792,0 0.03591,-0.01799 l 3.303547,-7.8279727 c 0,-0.017917 0,-0.035908 -0.03591,-0.035908 h -1.310646 c -0.01792,0 -0.03591,0 -0.03591,0.017991 z"
       id="path13352"
       style="fill:#005baa;fill-opacity:1;stroke-width:0.179541" />
    <g
       id="g13356"
       transform="matrix(0.17954062,0,0,0.17954062,8.4081706,7.6518577)"
       style="fill:#005baa;fill-opacity:1">
      <path
         class="logo-fill l-savia"
         d="m 196.6,44.9 h -18.7 c -0.2,0 -0.3,-0.2 -0.3,-0.3 v -7 c 0,-0.2 0.2,-0.3 0.3,-0.3 h 18.7 c 2.9,0 5.2,-2.2 5.2,-5 v -0.7 c 0,-2.7 -2.3,-5 -5.2,-5 h -8.2 c -7.2,0 -13.1,-5.8 -13.1,-12.9 0,-7.1 5.9,-12.9 13.1,-12.9 h 18.4 c 0.2,0 0.3,0.2 0.3,0.3 v 7 c 0,0.2 -0.2,0.3 -0.3,0.3 h -18.4 c -3,0 -5.5,2.4 -5.5,5.3 0,2.9 2.5,5.3 5.5,5.3 h 8.2 c 7.1,0 12.8,5.7 12.8,12.6 v 0.7 c 0,6.9 -5.7,12.6 -12.8,12.6 z"
         id="path13354"
         style="fill:#005baa;fill-opacity:1" />
    </g>
    <path
       class="logo-fill l-savia"
       id="logo-A-p"
       d="M 53.347189,15.605507 49.864103,7.7057193 c -0.01799,-0.053899 -0.107724,-0.053899 -0.125678,0 l -3.465132,7.8997877 c -0.01799,0.0539 0.01799,0.107724 0.07182,0.107724 h 1.220877 c 0.03591,0 0.05382,-0.01792 0.07182,-0.03591 l 2.118578,-4.650102 c 0.01799,-0.0539 0.107724,-0.0539 0.125678,0 l 2.136532,4.650102 c 0.01792,0.01799 0.03591,0.03591 0.07182,0.03591 h 1.220878 c 0.01799,-0.01792 0.0539,-0.07182 0.03591,-0.107724 z"
       style="fill:#005baa;fill-opacity:1;stroke-width:0.179541" />
    <path
       id="path842"
       style="font-style:normal;font-variant:normal;font-weight:normal;font-stretch:normal;font-size:2.66157px;line-height:1.25;font-family:Kievit;-inkscape-font-specification:Kievit;stroke-width:0.199627"
       d="m 9.7690303,19.107258 q -0.0346,0.03194 -0.087832,0.06388 -0.053231,0.03194 -0.1224322,0.05855 -0.066539,0.02395 -0.1490479,0.03992 -0.082509,0.01597 -0.1756637,0.01597 -0.2076024,0 -0.3699582,-0.07719 -0.159694,-0.07718 -0.2714799,-0.204931 -0.1091244,-0.127756 -0.167679,-0.292773 -0.055893,-0.167679 -0.055893,-0.348666 0,-0.178325 0.058555,-0.343342 0.058554,-0.167679 0.1703405,-0.292773 0.1117859,-0.125094 0.2714801,-0.199618 0.1623558,-0.07719 0.3672967,-0.07719 0.1703405,0 0.284788,0.03726 0.1144475,0.0346 0.2129256,0.09582 L 9.6306287,17.73921 Q 9.5534427,17.68598 9.454965,17.65404 9.359149,17.6221 9.2313932,17.6221 q -0.1596942,0 -0.2821265,0.06122 -0.1197706,0.06122 -0.1996177,0.162356 -0.079847,0.101139 -0.1224322,0.234218 -0.039923,0.133078 -0.039923,0.276803 0,0.146386 0.039923,0.282127 0.039924,0.13574 0.1197706,0.242202 0.082509,0.103802 0.2049409,0.167679 0.1224322,0.06122 0.2874496,0.06122 0.1437248,0 0.2501876,-0.04258 0.1064628,-0.04259 0.1836483,-0.109124 l 0.095816,0.149048 z" />
    <path
       id="path844"
       style="font-style:normal;font-variant:normal;font-weight:normal;font-stretch:normal;font-size:2.66157px;line-height:1.25;font-family:Kievit;-inkscape-font-specification:Kievit;stroke-width:0.199627"
       d="m 11.135416,18.612206 q 0,0.111786 -0.0346,0.231556 -0.03194,0.119771 -0.103801,0.218249 -0.07186,0.09582 -0.18631,0.159694 -0.114448,0.06388 -0.276803,0.06388 -0.162356,0 -0.274142,-0.06122 -0.111786,-0.06388 -0.183648,-0.159694 -0.0692,-0.09848 -0.1011401,-0.215587 -0.031939,-0.119771 -0.031939,-0.231557 0,-0.111786 0.029277,-0.231557 0.031939,-0.11977 0.1011401,-0.215587 0.0692,-0.09848 0.178325,-0.162356 0.111786,-0.06388 0.274141,-0.06388 0.162356,0 0.276804,0.06388 0.114447,0.06122 0.188971,0.159695 0.07452,0.09582 0.109125,0.215587 0.0346,0.117109 0.0346,0.228895 z m -0.207602,0.0053 q 0,-0.103801 -0.02662,-0.194295 -0.02395,-0.09315 -0.07719,-0.162355 -0.05057,-0.0692 -0.127756,-0.109125 -0.07452,-0.03992 -0.173002,-0.03992 -0.10114,0 -0.173002,0.03992 -0.0692,0.03992 -0.114447,0.109125 -0.04258,0.06654 -0.06388,0.157032 -0.02129,0.09049 -0.02129,0.194295 0,0.103801 0.02129,0.196956 0.02395,0.09049 0.07186,0.159694 0.04791,0.0692 0.11977,0.109125 0.07186,0.03992 0.173002,0.03992 0.09848,0 0.173002,-0.03992 0.07452,-0.03992 0.122433,-0.106463 0.04791,-0.0692 0.07186,-0.159694 0.02395,-0.09049 0.02395,-0.194295 z" />
    <path
       id="path846"
       style="font-style:normal;font-variant:normal;font-weight:normal;font-stretch:normal;font-size:2.66157px;line-height:1.25;font-family:Kievit;-inkscape-font-specification:Kievit;stroke-width:0.199627"
       d="m 12.076237,18.157077 q -0.01065,-0.0053 -0.03726,-0.01331 -0.02395,-0.008 -0.07452,-0.008 -0.07186,0 -0.127755,0.0346 -0.05589,0.0346 -0.09582,0.07985 -0.03992,0.04525 -0.06388,0.08783 -0.02129,0.04259 -0.02662,0.05856 v 0.857025 h -0.194294 v -1.277553 h 0.194295 v 0.199617 q 0.01863,-0.03194 0.04791,-0.07186 0.03194,-0.03992 0.07452,-0.07452 0.04259,-0.03726 0.09582,-0.06122 0.05589,-0.02395 0.122432,-0.02395 0.05856,0 0.08783,0.01065 0.03194,0.01065 0.04525,0.01597 z" />
    <path
       id="path848"
       style="font-style:normal;font-variant:normal;font-weight:normal;font-stretch:normal;font-size:2.66157px;line-height:1.25;font-family:Kievit;-inkscape-font-specification:Kievit;stroke-width:0.199627"
       d="m 13.459464,18.612206 q 0,0.151709 -0.04259,0.276803 -0.03992,0.122432 -0.117109,0.210264 -0.07452,0.08783 -0.178326,0.138402 -0.103801,0.04791 -0.226233,0.04791 -0.13574,0 -0.212926,-0.03992 -0.07452,-0.03992 -0.111786,-0.07186 v 0.662723 h -0.194294 v -1.860437 h 0.194294 v 0.138401 q 0.05057,-0.06122 0.141063,-0.114447 0.09049,-0.05589 0.228895,-0.05589 0.11711,0 0.212926,0.04525 0.09582,0.04525 0.162356,0.130417 0.0692,0.08517 0.106463,0.210264 0.03726,0.122433 0.03726,0.282127 z m -0.207603,0.0053 q 0,-0.106463 -0.02129,-0.196956 -0.02129,-0.09315 -0.06388,-0.159694 -0.04258,-0.06654 -0.109124,-0.103802 -0.06654,-0.03726 -0.157033,-0.03726 -0.06654,0 -0.122432,0.02129 -0.05589,0.02129 -0.09848,0.05057 -0.03992,0.02928 -0.0692,0.05855 -0.02662,0.02928 -0.03992,0.04791 v 0.702654 q 0.04525,0.03992 0.114447,0.07985 0.07186,0.03726 0.191633,0.03726 0.09049,0 0.159694,-0.03726 0.07186,-0.03726 0.119771,-0.103801 0.04791,-0.0692 0.07186,-0.159694 0.02395,-0.09049 0.02395,-0.199618 z" />
    <path
       id="path850"
       style="font-style:normal;font-variant:normal;font-weight:normal;font-stretch:normal;font-size:2.66157px;line-height:1.25;font-family:Kievit;-inkscape-font-specification:Kievit;stroke-width:0.199627"
       d="m 14.865562,18.612206 q 0,0.111786 -0.0346,0.231556 -0.03194,0.119771 -0.103801,0.218249 -0.07186,0.09582 -0.18631,0.159694 -0.114447,0.06388 -0.276803,0.06388 -0.162356,0 -0.274142,-0.06122 -0.111786,-0.06388 -0.183648,-0.159694 -0.0692,-0.09848 -0.10114,-0.215587 -0.03194,-0.119771 -0.03194,-0.231557 0,-0.111786 0.02928,-0.231557 0.03194,-0.11977 0.10114,-0.215587 0.0692,-0.09848 0.178325,-0.162356 0.111786,-0.06388 0.274142,-0.06388 0.162356,0 0.276803,0.06388 0.114448,0.06122 0.188972,0.159695 0.07452,0.09582 0.109124,0.215587 0.0346,0.117109 0.0346,0.228895 z m -0.207602,0.0053 q 0,-0.103801 -0.02662,-0.194295 -0.02395,-0.09315 -0.07719,-0.162355 -0.05057,-0.0692 -0.127755,-0.109125 -0.07452,-0.03992 -0.173002,-0.03992 -0.10114,0 -0.173002,0.03992 -0.0692,0.03992 -0.114448,0.109125 -0.04259,0.06654 -0.06388,0.157032 -0.02129,0.09049 -0.02129,0.194295 0,0.103801 0.02129,0.196956 0.02395,0.09049 0.07186,0.159694 0.04791,0.0692 0.119771,0.109125 0.07186,0.03992 0.173002,0.03992 0.09848,0 0.173002,-0.03992 0.07452,-0.03992 0.122432,-0.106463 0.04791,-0.0692 0.07186,-0.159694 0.02395,-0.09049 0.02395,-0.194295 z" />
    <path
       id="path852"
       style="font-style:normal;font-variant:normal;font-weight:normal;font-stretch:normal;font-size:2.66157px;line-height:1.25;font-family:Kievit;-inkscape-font-specification:Kievit;stroke-width:0.199627"
       d="m 15.808673,18.157077 q -0.01065,-0.0053 -0.03726,-0.01331 -0.02395,-0.008 -0.07452,-0.008 -0.07186,0 -0.127755,0.0346 -0.05589,0.0346 -0.09582,0.07985 -0.03992,0.04525 -0.06388,0.08783 -0.02129,0.04259 -0.02662,0.05856 v 0.857025 h -0.194293 v -1.277553 h 0.194294 v 0.199617 q 0.01863,-0.03194 0.04791,-0.07186 0.03194,-0.03992 0.07452,-0.07452 0.04258,-0.03726 0.09582,-0.06122 0.05589,-0.02395 0.122433,-0.02395 0.05856,0 0.08783,0.01065 0.03194,0.01065 0.04525,0.01597 z" />
    <path
       id="path854"
       style="font-style:normal;font-variant:normal;font-weight:normal;font-stretch:normal;font-size:2.66157px;line-height:1.25;font-family:Kievit;-inkscape-font-specification:Kievit;stroke-width:0.199627"
       d="m 16.774033,19.253644 q -0.0053,-0.02661 -0.01065,-0.07452 -0.0053,-0.05057 -0.008,-0.07985 -0.02129,0.02928 -0.05856,0.06122 -0.0346,0.03194 -0.08251,0.06122 -0.04791,0.02662 -0.109124,0.04525 -0.06122,0.01863 -0.133079,0.01863 -0.159694,0 -0.263495,-0.09315 -0.10114,-0.09315 -0.10114,-0.250187 0,-0.127756 0.06122,-0.210264 0.06388,-0.08517 0.162356,-0.135741 0.10114,-0.05057 0.22091,-0.07186 0.119771,-0.02129 0.23688,-0.02129 h 0.05589 v -0.11977 q 0,-0.122432 -0.05323,-0.194295 -0.05323,-0.07186 -0.202279,-0.07186 -0.0692,0 -0.122433,0.01597 -0.05323,0.01597 -0.09582,0.03992 -0.03992,0.02129 -0.0692,0.04525 -0.02662,0.02129 -0.04525,0.03726 l -0.103801,-0.13574 q 0.02395,-0.02129 0.06122,-0.05057 0.03992,-0.03194 0.09315,-0.05856 0.05589,-0.02928 0.127756,-0.04791 0.07452,-0.01863 0.167679,-0.01863 0.210264,0 0.32205,0.103801 0.114447,0.10114 0.114447,0.319388 v 0.596192 q 0,0.09582 0.008,0.170341 0.008,0.07452 0.02129,0.11977 z m -0.02928,-0.606838 h -0.05589 q -0.103801,0 -0.191633,0.01597 -0.08517,0.01331 -0.149048,0.04791 -0.06122,0.0346 -0.09848,0.09049 -0.0346,0.05589 -0.0346,0.13574 0,0.05057 0.01863,0.08517 0.01863,0.0346 0.04525,0.05589 0.02928,0.02129 0.06122,0.03194 0.0346,0.008 0.06388,0.008 0.07186,0 0.127756,-0.02129 0.05589,-0.02129 0.09582,-0.05057 0.04258,-0.02928 0.07186,-0.05856 0.02928,-0.03194 0.04525,-0.05323 z" />
    <path
       id="path856"
       style="font-style:normal;font-variant:normal;font-weight:normal;font-stretch:normal;font-size:2.66157px;line-height:1.25;font-family:Kievit;-inkscape-font-specification:Kievit;stroke-width:0.199627"
       d="m 18.236982,19.157828 q -0.01863,0.01597 -0.05323,0.03992 -0.03194,0.02129 -0.08251,0.04258 -0.05057,0.01863 -0.117109,0.03194 -0.06654,0.01331 -0.149048,0.01331 -0.141063,0 -0.250188,-0.05589 -0.109124,-0.05589 -0.183648,-0.146386 -0.07186,-0.09315 -0.109124,-0.212926 -0.03726,-0.122432 -0.03726,-0.255511 0,-0.162355 0.04791,-0.287449 0.04791,-0.127756 0.127755,-0.210264 0.07985,-0.08517 0.18631,-0.127756 0.106463,-0.04525 0.226234,-0.04525 0.07985,0 0.141063,0.01331 0.06122,0.01331 0.109124,0.0346 0.04791,0.01863 0.08251,0.03992 0.0346,0.02129 0.05856,0.03992 l -0.09316,0.146386 q -0.05057,-0.03726 -0.11977,-0.07186 -0.0692,-0.0346 -0.180987,-0.0346 -0.09848,0 -0.170341,0.03992 -0.07186,0.03726 -0.117109,0.103801 -0.04525,0.06654 -0.0692,0.159695 -0.02129,0.09049 -0.02129,0.194294 0,0.10114 0.02129,0.194295 0.02395,0.09315 0.0692,0.162356 0.04791,0.0692 0.119771,0.111786 0.07186,0.03992 0.173002,0.03992 0.05855,0 0.109124,-0.01065 0.05323,-0.01331 0.09315,-0.02928 0.03992,-0.01863 0.06654,-0.03726 0.02928,-0.01863 0.04258,-0.02928 l 0.07985,0.146387 z" />
    <path
       id="path858"
       style="font-style:normal;font-variant:normal;font-weight:normal;font-stretch:normal;font-size:2.66157px;line-height:1.25;font-family:Kievit;-inkscape-font-specification:Kievit;stroke-width:0.199627"
       d="m 18.650731,17.449099 q 0.06122,0 0.101139,0.04258 0.04259,0.03992 0.04259,0.101141 0,0.06122 -0.04259,0.103801 -0.03992,0.03992 -0.101139,0.03992 -0.06122,0 -0.103802,-0.03992 -0.03992,-0.04259 -0.03992,-0.103801 0,-0.06122 0.03992,-0.101141 0.04259,-0.04258 0.103802,-0.04258 z m -0.09848,1.804545 v -1.277553 h 0.196957 v 1.277553 z" />
    <path
       id="path860"
       style="font-style:normal;font-variant:normal;font-weight:normal;font-stretch:normal;font-size:2.66157px;line-height:1.25;font-family:Kievit;-inkscape-font-specification:Kievit;stroke-width:0.199627"
       d="m 20.282274,18.612206 q 0,0.111786 -0.0346,0.231556 -0.03194,0.119771 -0.103801,0.218249 -0.07186,0.09582 -0.186309,0.159694 -0.114449,0.06388 -0.276804,0.06388 -0.162356,0 -0.274141,-0.06122 -0.111787,-0.06388 -0.18365,-0.159694 -0.0692,-0.09848 -0.101139,-0.215587 -0.03194,-0.119771 -0.03194,-0.231557 0,-0.111786 0.02928,-0.231557 0.03194,-0.11977 0.10114,-0.215587 0.0692,-0.09848 0.178325,-0.162356 0.111786,-0.06388 0.274142,-0.06388 0.162356,0 0.276803,0.06388 0.114448,0.06122 0.188972,0.159695 0.07452,0.09582 0.109124,0.215587 0.0346,0.117109 0.0346,0.228895 z m -0.207603,0.0053 q 0,-0.103801 -0.02662,-0.194295 -0.02395,-0.09315 -0.07719,-0.162355 -0.05057,-0.0692 -0.127757,-0.109125 -0.07452,-0.03992 -0.173001,-0.03992 -0.10114,0 -0.173003,0.03992 -0.0692,0.03992 -0.114447,0.109125 -0.04259,0.06654 -0.06388,0.157032 -0.02129,0.09049 -0.02129,0.194295 0,0.103801 0.02129,0.196956 0.02395,0.09049 0.07186,0.159694 0.04791,0.0692 0.119771,0.109125 0.07186,0.03992 0.173003,0.03992 0.09848,0 0.173002,-0.03992 0.07452,-0.03992 0.122432,-0.106463 0.04791,-0.0692 0.07186,-0.159694 0.02395,-0.09049 0.02395,-0.194295 z m -0.244865,-1.136468 h 0.290112 l -0.359311,0.335358 h -0.175664 z" />
    <path
       id="path862"
       style="font-style:normal;font-variant:normal;font-weight:normal;font-stretch:normal;font-size:2.66157px;line-height:1.25;font-family:Kievit;-inkscape-font-specification:Kievit;stroke-width:0.199627"
       d="m 21.395724,19.253644 v -0.872995 q 0,-0.11977 -0.05057,-0.188971 -0.04791,-0.07186 -0.175663,-0.07186 -0.07452,0 -0.138402,0.03194 -0.06122,0.03194 -0.111786,0.07186 -0.04791,0.03992 -0.07985,0.07985 -0.02928,0.03726 -0.03992,0.05057 v 0.89961 h -0.194294 v -1.277553 h 0.194294 v 0.183648 q 0.02129,-0.02662 0.05589,-0.06388 0.03726,-0.03726 0.08783,-0.0692 0.05323,-0.0346 0.119771,-0.05855 0.06654,-0.02395 0.151709,-0.02395 0.10114,0 0.170342,0.03194 0.07186,0.03194 0.117108,0.08517 0.04525,0.05323 0.06654,0.127755 0.02129,0.07186 0.02129,0.154371 v 0.910257 z" />
    <path
       id="path864"
       style="font-style:normal;font-variant:normal;font-weight:normal;font-stretch:normal;font-size:2.66157px;line-height:1.25;font-family:Kievit;-inkscape-font-specification:Kievit;stroke-width:0.199627"
       d="m 23.482146,19.157828 q -0.01863,0.01597 -0.05323,0.03992 -0.03194,0.02129 -0.08251,0.04258 -0.05057,0.01863 -0.117108,0.03194 -0.06654,0.01331 -0.149049,0.01331 -0.141063,0 -0.250187,-0.05589 -0.109123,-0.05589 -0.183648,-0.146386 -0.07186,-0.09315 -0.109125,-0.212926 -0.03726,-0.122432 -0.03726,-0.255511 0,-0.162355 0.04791,-0.287449 0.04791,-0.127756 0.127756,-0.210264 0.07985,-0.08517 0.186311,-0.127756 0.106462,-0.04525 0.226233,-0.04525 0.07985,0 0.141063,0.01331 0.06122,0.01331 0.109125,0.0346 0.04791,0.01863 0.08251,0.03992 0.0346,0.02129 0.05856,0.03992 l -0.09315,0.146386 q -0.05057,-0.03726 -0.119771,-0.07186 -0.0692,-0.0346 -0.180987,-0.0346 -0.09848,0 -0.170341,0.03992 -0.07186,0.03726 -0.117108,0.103801 -0.04525,0.06654 -0.0692,0.159695 -0.02129,0.09049 -0.02129,0.194294 0,0.10114 0.02129,0.194295 0.02395,0.09315 0.0692,0.162356 0.04791,0.0692 0.119771,0.111786 0.07186,0.03992 0.173002,0.03992 0.05855,0 0.109124,-0.01065 0.05323,-0.01331 0.09315,-0.02928 0.03992,-0.01863 0.06654,-0.03726 0.02928,-0.01863 0.04259,-0.02928 l 0.07985,0.146387 z" />
    <path
       id="path866"
       style="font-style:normal;font-variant:normal;font-weight:normal;font-stretch:normal;font-size:2.66157px;line-height:1.25;font-family:Kievit;-inkscape-font-specification:Kievit;stroke-width:0.199627"
       d="m 24.850191,18.612206 q 0,0.111786 -0.0346,0.231556 -0.03194,0.119771 -0.103801,0.218249 -0.07186,0.09582 -0.18631,0.159694 -0.114448,0.06388 -0.276803,0.06388 -0.162356,0 -0.274141,-0.06122 -0.111787,-0.06388 -0.18365,-0.159694 -0.0692,-0.09848 -0.101139,-0.215587 -0.03194,-0.119771 -0.03194,-0.231557 0,-0.111786 0.02928,-0.231557 0.03194,-0.11977 0.10114,-0.215587 0.0692,-0.09848 0.178325,-0.162356 0.111786,-0.06388 0.274142,-0.06388 0.162355,0 0.276803,0.06388 0.114447,0.06122 0.188971,0.159695 0.07452,0.09582 0.109125,0.215587 0.0346,0.117109 0.0346,0.228895 z m -0.207602,0.0053 q 0,-0.103801 -0.02662,-0.194295 -0.02395,-0.09315 -0.07719,-0.162355 -0.05057,-0.0692 -0.127756,-0.109125 -0.07452,-0.03992 -0.173002,-0.03992 -0.10114,0 -0.173002,0.03992 -0.0692,0.03992 -0.114447,0.109125 -0.04259,0.06654 -0.06388,0.157032 -0.02129,0.09049 -0.02129,0.194295 0,0.103801 0.02129,0.196956 0.02395,0.09049 0.07186,0.159694 0.04791,0.0692 0.119771,0.109125 0.07186,0.03992 0.173002,0.03992 0.09848,0 0.173002,-0.03992 0.07452,-0.03992 0.122432,-0.106463 0.04791,-0.0692 0.07186,-0.159694 0.02395,-0.09049 0.02395,-0.194295 z" />
    <path
       id="path868"
       style="font-style:normal;font-variant:normal;font-weight:normal;font-stretch:normal;font-size:2.66157px;line-height:1.25;font-family:Kievit;-inkscape-font-specification:Kievit;stroke-width:0.199627"
       d="m 25.179937,19.253644 v -1.916331 h 0.194294 v 1.916331 z" />
    <path
       id="path870"
       style="font-style:normal;font-variant:normal;font-weight:normal;font-stretch:normal;font-size:2.66157px;line-height:1.25;font-family:Kievit;-inkscape-font-specification:Kievit;stroke-width:0.199627"
       d="m 26.894611,18.612206 q 0,0.111786 -0.0346,0.231556 -0.03194,0.119771 -0.103801,0.218249 -0.07186,0.09582 -0.18631,0.159694 -0.114448,0.06388 -0.276803,0.06388 -0.162356,0 -0.274142,-0.06122 -0.111786,-0.06388 -0.183648,-0.159694 -0.0692,-0.09848 -0.10114,-0.215587 -0.03194,-0.119771 -0.03194,-0.231557 0,-0.111786 0.02928,-0.231557 0.03194,-0.11977 0.10114,-0.215587 0.0692,-0.09848 0.178325,-0.162356 0.111786,-0.06388 0.274142,-0.06388 0.162356,0 0.276803,0.06388 0.114448,0.06122 0.188972,0.159695 0.07452,0.09582 0.109124,0.215587 0.0346,0.117109 0.0346,0.228895 z m -0.207602,0.0053 q 0,-0.103801 -0.02662,-0.194295 -0.02395,-0.09315 -0.07719,-0.162355 -0.05057,-0.0692 -0.127756,-0.109125 -0.07452,-0.03992 -0.173002,-0.03992 -0.101139,0 -0.173002,0.03992 -0.0692,0.03992 -0.114447,0.109125 -0.04259,0.06654 -0.06388,0.157032 -0.02129,0.09049 -0.02129,0.194295 0,0.103801 0.02129,0.196956 0.02395,0.09049 0.07186,0.159694 0.04791,0.0692 0.119771,0.109125 0.07186,0.03992 0.173002,0.03992 0.09848,0 0.173002,-0.03992 0.07452,-0.03992 0.122432,-0.106463 0.04791,-0.0692 0.07186,-0.159694 0.02395,-0.09049 0.02395,-0.194295 z" />
    <path
       id="path872"
       style="font-style:normal;font-variant:normal;font-weight:normal;font-stretch:normal;font-size:2.66157px;line-height:1.25;font-family:Kievit;-inkscape-font-specification:Kievit;stroke-width:0.199627"
       d="m 28.130495,18.159739 q 0.03726,-0.03992 0.07985,-0.07985 0.04258,-0.03992 0.09315,-0.0692 0.05057,-0.02928 0.109125,-0.04791 0.06122,-0.01863 0.130417,-0.01863 0.09582,0 0.165018,0.03194 0.0692,0.02928 0.111786,0.08251 0.04258,0.05323 0.06122,0.127756 0.02129,0.07186 0.02129,0.157032 v 0.910257 h -0.194293 v -0.872995 q 0,-0.117109 -0.04525,-0.188971 -0.04258,-0.07186 -0.165017,-0.07186 -0.05855,0 -0.111786,0.02129 -0.05057,0.01863 -0.09582,0.05057 -0.04258,0.02928 -0.07719,0.06388 -0.03194,0.0346 -0.05589,0.06388 v 0.934211 h -0.194295 v -0.872995 q 0,-0.11977 -0.04791,-0.188971 -0.04525,-0.07186 -0.157033,-0.07186 -0.0692,0 -0.130417,0.03194 -0.05855,0.02928 -0.103801,0.0692 -0.04258,0.03992 -0.07186,0.07985 -0.02928,0.03726 -0.03992,0.05057 v 0.902272 h -0.194294 v -1.277553 h 0.194294 v 0.180986 q 0.02129,-0.02661 0.05323,-0.06122 0.0346,-0.03726 0.08251,-0.0692 0.04791,-0.0346 0.109125,-0.05855 0.06388,-0.02395 0.146386,-0.02395 0.141063,0 0.218249,0.06388 0.07719,0.06122 0.109124,0.15171 z" />
    <path
       id="path874"
       style="font-style:normal;font-variant:normal;font-weight:normal;font-stretch:normal;font-size:2.66157px;line-height:1.25;font-family:Kievit;-inkscape-font-specification:Kievit;stroke-width:0.199627"
       d="m 29.514429,17.337313 v 0.739917 q 0.04259,-0.04525 0.125094,-0.08783 0.08517,-0.04525 0.194294,-0.04525 0.130417,0 0.231557,0.04791 0.103801,0.04791 0.173002,0.13574 0.07186,0.08783 0.109124,0.210264 0.03726,0.122432 0.03726,0.27148 0,0.146387 -0.04791,0.27148 -0.04791,0.122433 -0.13574,0.212926 -0.08517,0.09049 -0.204941,0.141063 -0.117109,0.05057 -0.255511,0.05057 -0.09315,0 -0.167679,-0.01331 -0.07186,-0.01331 -0.127755,-0.02928 -0.05323,-0.01863 -0.08517,-0.0346 -0.03194,-0.01597 -0.03992,-0.02129 v -1.84979 z m 0,1.740668 q 0.01863,0.008 0.07452,0.02395 0.05855,0.01597 0.154371,0.01597 0.109124,0 0.188971,-0.04258 0.08251,-0.04259 0.13574,-0.111786 0.05589,-0.0692 0.08251,-0.159694 0.02662,-0.09315 0.02662,-0.188972 0,-0.101139 -0.02129,-0.188971 -0.01863,-0.09049 -0.06654,-0.157033 -0.04525,-0.0692 -0.117109,-0.109124 -0.07186,-0.03992 -0.175664,-0.03992 -0.05323,0 -0.101139,0.01597 -0.04791,0.01597 -0.08783,0.03726 -0.03726,0.02129 -0.06122,0.04258 -0.02396,0.02129 -0.03194,0.02928 z" />
    <path
       id="path876"
       style="font-style:normal;font-variant:normal;font-weight:normal;font-stretch:normal;font-size:2.66157px;line-height:1.25;font-family:Kievit;-inkscape-font-specification:Kievit;stroke-width:0.199627"
       d="m 30.825336,17.449099 q 0.06122,0 0.10114,0.04258 0.04259,0.03992 0.04259,0.101141 0,0.06122 -0.04259,0.103801 -0.03992,0.03992 -0.10114,0.03992 -0.06122,0 -0.103802,-0.03992 -0.03992,-0.04259 -0.03992,-0.103801 0,-0.06122 0.03992,-0.101141 0.04258,-0.04258 0.103802,-0.04258 z m -0.09848,1.804545 v -1.277553 h 0.196956 v 1.277553 z" />
    <path
       id="path878"
       style="font-style:normal;font-variant:normal;font-weight:normal;font-stretch:normal;font-size:2.66157px;line-height:1.25;font-family:Kievit;-inkscape-font-specification:Kievit;stroke-width:0.199627"
       d="m 32.041673,19.253644 q -0.0053,-0.02661 -0.01065,-0.07452 -0.0053,-0.05057 -0.008,-0.07985 -0.02129,0.02928 -0.05856,0.06122 -0.0346,0.03194 -0.08251,0.06122 -0.04791,0.02662 -0.109125,0.04525 -0.06122,0.01863 -0.133078,0.01863 -0.159694,0 -0.263496,-0.09315 -0.101139,-0.09315 -0.101139,-0.250187 0,-0.127756 0.06122,-0.210264 0.06388,-0.08517 0.162356,-0.135741 0.101139,-0.05057 0.22091,-0.07186 0.119771,-0.02129 0.23688,-0.02129 h 0.05589 v -0.11977 q 0,-0.122432 -0.05323,-0.194295 -0.05323,-0.07186 -0.202279,-0.07186 -0.0692,0 -0.122432,0.01597 -0.05323,0.01597 -0.09582,0.03992 -0.03992,0.02129 -0.0692,0.04525 -0.02661,0.02129 -0.04525,0.03726 l -0.103802,-0.13574 q 0.02395,-0.02129 0.06122,-0.05057 0.03992,-0.03194 0.09315,-0.05856 0.05589,-0.02928 0.127756,-0.04791 0.07452,-0.01863 0.167679,-0.01863 0.210264,0 0.32205,0.103801 0.114446,0.10114 0.114446,0.319388 v 0.596192 q 0,0.09582 0.008,0.170341 0.008,0.07452 0.02129,0.11977 z m -0.02928,-0.606838 h -0.05589 q -0.103802,0 -0.191633,0.01597 -0.08517,0.01331 -0.149048,0.04791 -0.06122,0.0346 -0.09848,0.09049 -0.0346,0.05589 -0.0346,0.13574 0,0.05057 0.01863,0.08517 0.01863,0.0346 0.04525,0.05589 0.02928,0.02129 0.06122,0.03194 0.0346,0.008 0.06388,0.008 0.07186,0 0.127755,-0.02129 0.05589,-0.02129 0.09582,-0.05057 0.04258,-0.02928 0.07186,-0.05856 0.02928,-0.03194 0.04525,-0.05323 z" />
    <path
       id="path880"
       style="font-style:normal;font-variant:normal;font-weight:normal;font-stretch:normal;font-size:2.66157px;line-height:1.25;font-family:Kievit;-inkscape-font-specification:Kievit;stroke-width:0.199627"
       d="m 33.424773,19.253644 v -0.872995 q 0,-0.11977 -0.05057,-0.188971 -0.04791,-0.07186 -0.175664,-0.07186 -0.07452,0 -0.138401,0.03194 -0.06122,0.03194 -0.111786,0.07186 -0.04791,0.03992 -0.07985,0.07985 -0.02928,0.03726 -0.03992,0.05057 v 0.89961 h -0.194295 v -1.277553 h 0.194295 v 0.183648 q 0.02129,-0.02662 0.05589,-0.06388 0.03726,-0.03726 0.08783,-0.0692 0.05323,-0.0346 0.11977,-0.05855 0.06654,-0.02395 0.151711,-0.02395 0.10114,0 0.17034,0.03194 0.07186,0.03194 0.11711,0.08517 0.04525,0.05323 0.06654,0.127755 0.02129,0.07186 0.02129,0.154371 v 0.910257 z" />
    <path
       id="path882"
       style="font-style:normal;font-variant:normal;font-weight:normal;font-stretch:normal;font-size:2.66157px;line-height:1.25;font-family:Kievit;-inkscape-font-specification:Kievit;stroke-width:0.199627"
       d="m 34.708441,19.253644 q -0.0053,-0.02661 -0.01065,-0.07452 -0.0053,-0.05057 -0.008,-0.07985 -0.02129,0.02928 -0.05856,0.06122 -0.0346,0.03194 -0.08251,0.06122 -0.04791,0.02662 -0.109124,0.04525 -0.06122,0.01863 -0.133078,0.01863 -0.159694,0 -0.263496,-0.09315 -0.101139,-0.09315 -0.101139,-0.250187 0,-0.127756 0.06122,-0.210264 0.06388,-0.08517 0.162355,-0.135741 0.101139,-0.05057 0.22091,-0.07186 0.119771,-0.02129 0.23688,-0.02129 h 0.05589 v -0.11977 q 0,-0.122432 -0.05323,-0.194295 -0.05323,-0.07186 -0.202279,-0.07186 -0.0692,0 -0.122433,0.01597 -0.05323,0.01597 -0.09582,0.03992 -0.03992,0.02129 -0.0692,0.04525 -0.02661,0.02129 -0.04525,0.03726 l -0.103802,-0.13574 q 0.02396,-0.02129 0.06122,-0.05057 0.03992,-0.03194 0.09315,-0.05856 0.05589,-0.02928 0.127755,-0.04791 0.07452,-0.01863 0.167679,-0.01863 0.210263,0 0.32205,0.103801 0.114447,0.10114 0.114447,0.319388 v 0.596192 q 0,0.09582 0.008,0.170341 0.008,0.07452 0.02129,0.11977 z m -0.02928,-0.606838 h -0.05589 q -0.103803,0 -0.191634,0.01597 -0.08517,0.01331 -0.149048,0.04791 -0.06122,0.0346 -0.09848,0.09049 -0.0346,0.05589 -0.0346,0.13574 0,0.05057 0.01863,0.08517 0.01863,0.0346 0.04525,0.05589 0.02928,0.02129 0.06122,0.03194 0.0346,0.008 0.06388,0.008 0.07186,0 0.127755,-0.02129 0.05589,-0.02129 0.09582,-0.05057 0.04258,-0.02928 0.07186,-0.05856 0.02928,-0.03194 0.04525,-0.05323 z" />
    <path
       id="path884"
       style="font-style:normal;font-variant:normal;font-weight:normal;font-stretch:normal;font-size:2.66157px;line-height:1.25;font-family:Kievit;-inkscape-font-specification:Kievit;stroke-width:0.199627"
       d="m 35.787084,18.617529 q 0,-0.15171 0.04259,-0.274142 0.04258,-0.125094 0.117109,-0.212925 0.07719,-0.09049 0.180987,-0.138402 0.103801,-0.04791 0.223572,-0.04791 0.13574,0 0.210264,0.03992 0.07719,0.03992 0.114447,0.07186 v -0.718617 h 0.194295 v 1.655497 q 0,0.08517 0.01331,0.159695 0.01331,0.07186 0.01863,0.101139 h -0.194295 q -0.0053,-0.02129 -0.01331,-0.06388 -0.008,-0.04525 -0.01065,-0.08251 -0.05323,0.0692 -0.146385,0.125094 -0.09049,0.05323 -0.223572,0.05323 -0.114448,0 -0.212926,-0.04258 -0.09582,-0.04525 -0.165018,-0.130417 -0.0692,-0.08783 -0.109123,-0.210264 -0.03992,-0.125094 -0.03992,-0.284788 z m 0.207603,-0.0053 q 0,0.109124 0.01863,0.202279 0.02129,0.09049 0.06388,0.157033 0.04525,0.06388 0.111786,0.101139 0.0692,0.03726 0.165018,0.03726 0.06388,0 0.117109,-0.02129 0.05323,-0.02129 0.09315,-0.04791 0.04258,-0.02928 0.0692,-0.05856 0.02928,-0.02928 0.04258,-0.04791 v -0.705316 q -0.04525,-0.03992 -0.117109,-0.07719 -0.0692,-0.03992 -0.18897,-0.03992 -0.09049,0 -0.162356,0.03726 -0.0692,0.03726 -0.117109,0.106462 -0.04791,0.06654 -0.07186,0.159695 -0.02395,0.09049 -0.02395,0.196956 z" />
    <path
       id="path886"
       style="font-style:normal;font-variant:normal;font-weight:normal;font-stretch:normal;font-size:2.66157px;line-height:1.25;font-family:Kievit;-inkscape-font-specification:Kievit;stroke-width:0.199627"
       d="m 37.387852,18.609544 q 0.0027,0.10114 0.02395,0.194295 0.02395,0.09315 0.07186,0.162356 0.04791,0.0692 0.122432,0.111786 0.07452,0.03992 0.183649,0.03992 0.06654,0 0.122432,-0.01331 0.05589,-0.01331 0.09848,-0.02928 0.04525,-0.01863 0.07719,-0.03726 0.0346,-0.02129 0.05589,-0.0346 l 0.07985,0.151709 q -0.02395,0.01597 -0.06388,0.03992 -0.03726,0.02129 -0.09315,0.04258 -0.05323,0.01863 -0.125094,0.03194 -0.0692,0.01597 -0.157033,0.01597 -0.151709,0 -0.266158,-0.05323 -0.111785,-0.05323 -0.18897,-0.143725 -0.07452,-0.09316 -0.111786,-0.215587 -0.03726,-0.125094 -0.03726,-0.266157 0,-0.141064 0.03992,-0.260834 0.04258,-0.122432 0.117108,-0.210264 0.07719,-0.09049 0.18365,-0.141063 0.106462,-0.05057 0.234218,-0.05057 0.127755,0 0.226233,0.04791 0.10114,0.04791 0.165017,0.13574 0.06388,0.08783 0.09049,0.210264 0.02928,0.122432 0.01597,0.27148 h -0.86501 z m 0.670716,-0.154371 q -0.0027,-0.06654 -0.02129,-0.127755 -0.01597,-0.06388 -0.05323,-0.111786 -0.0346,-0.04791 -0.09315,-0.07452 -0.05856,-0.02928 -0.141062,-0.02928 -0.154372,0 -0.239542,0.09582 -0.08517,0.09582 -0.111787,0.247526 z" />
    <path
       id="path888"
       style="font-style:normal;font-variant:normal;font-weight:normal;font-stretch:normal;font-size:2.66157px;line-height:1.25;font-family:Kievit;-inkscape-font-specification:Kievit;stroke-width:0.199627"
       d="m 39.309089,17.449099 q 0.06122,0 0.10114,0.04258 0.04259,0.03992 0.04259,0.101141 0,0.06122 -0.04259,0.103801 -0.03992,0.03992 -0.10114,0.03992 -0.06122,0 -0.103802,-0.03992 -0.03992,-0.04259 -0.03992,-0.103801 0,-0.06122 0.03992,-0.101141 0.04258,-0.04258 0.103802,-0.04258 z m -0.09848,1.804545 v -1.277553 h 0.196956 v 1.277553 z" />
    <path
       id="path890"
       style="font-style:normal;font-variant:normal;font-weight:normal;font-stretch:normal;font-size:2.66157px;line-height:1.25;font-family:Kievit;-inkscape-font-specification:Kievit;stroke-width:0.199627"
       d="m 40.650521,19.253644 v -0.872995 q 0,-0.11977 -0.05057,-0.188971 -0.04791,-0.07186 -0.175664,-0.07186 -0.07452,0 -0.138401,0.03194 -0.06122,0.03194 -0.111786,0.07186 -0.04791,0.03992 -0.07985,0.07985 -0.02928,0.03726 -0.03992,0.05057 v 0.89961 h -0.194297 v -1.277553 h 0.194296 v 0.183648 q 0.02129,-0.02662 0.05589,-0.06388 0.03726,-0.03726 0.08783,-0.0692 0.05323,-0.0346 0.11977,-0.05855 0.06654,-0.02395 0.151709,-0.02395 0.10114,0 0.170341,0.03194 0.07186,0.03194 0.117109,0.08517 0.04525,0.05323 0.06654,0.127755 0.02129,0.07186 0.02129,0.154371 v 0.910257 z" />
    <path
       id="path892"
       style="font-style:normal;font-variant:normal;font-weight:normal;font-stretch:normal;font-size:2.66157px;line-height:1.25;font-family:Kievit;-inkscape-font-specification:Kievit;stroke-width:0.199627"
       d="m 41.664162,18.998134 0.35665,-1.022043 h 0.199618 l -0.471098,1.277553 h -0.180988 l -0.487067,-1.277553 h 0.212925 l 0.364635,1.022043 z" />
    <path
       id="path894"
       style="font-style:normal;font-variant:normal;font-weight:normal;font-stretch:normal;font-size:2.66157px;line-height:1.25;font-family:Kievit;-inkscape-font-specification:Kievit;stroke-width:0.199627"
       d="m 42.569176,18.609544 q 0.0027,0.10114 0.02395,0.194295 0.02395,0.09315 0.07186,0.162356 0.04791,0.0692 0.122432,0.111786 0.07452,0.03992 0.183649,0.03992 0.06654,0 0.122432,-0.01331 0.05589,-0.01331 0.09848,-0.02928 0.04525,-0.01863 0.07719,-0.03726 0.0346,-0.02129 0.05589,-0.0346 l 0.07985,0.151709 q -0.02395,0.01597 -0.06388,0.03992 -0.03726,0.02129 -0.09315,0.04258 -0.05323,0.01863 -0.125094,0.03194 -0.0692,0.01597 -0.157033,0.01597 -0.151709,0 -0.266157,-0.05323 -0.111786,-0.05323 -0.188971,-0.143725 -0.07452,-0.09316 -0.111786,-0.215587 -0.03726,-0.125094 -0.03726,-0.266157 0,-0.141064 0.03992,-0.260834 0.04258,-0.122432 0.117109,-0.210264 0.07719,-0.09049 0.183649,-0.141063 0.106462,-0.05057 0.234218,-0.05057 0.127755,0 0.226233,0.04791 0.10114,0.04791 0.165018,0.13574 0.06388,0.08783 0.09049,0.210264 0.02928,0.122432 0.01597,0.27148 h -0.86501 z m 0.670716,-0.154371 q -0.0027,-0.06654 -0.02129,-0.127755 -0.01597,-0.06388 -0.05323,-0.111786 -0.0346,-0.04791 -0.09316,-0.07452 -0.05855,-0.02928 -0.141063,-0.02928 -0.154371,0 -0.239542,0.09582 -0.08517,0.09582 -0.111787,0.247526 z" />
    <path
       id="path896"
       style="font-style:normal;font-variant:normal;font-weight:normal;font-stretch:normal;font-size:2.66157px;line-height:1.25;font-family:Kievit;-inkscape-font-specification:Kievit;stroke-width:0.199627"
       d="m 44.530174,18.910302 q 0,0.175663 -0.122432,0.276803 -0.122433,0.10114 -0.332697,0.10114 -0.138401,0 -0.242202,-0.03992 -0.10114,-0.03992 -0.162356,-0.08251 l 0.08517,-0.149047 q 0.03726,0.02661 0.117109,0.06654 0.08251,0.03726 0.199618,0.03726 0.119771,0 0.188971,-0.04791 0.07186,-0.04791 0.07186,-0.13574 0,-0.04258 -0.01863,-0.07452 -0.01597,-0.0346 -0.05323,-0.06122 -0.0346,-0.02928 -0.08783,-0.05589 -0.05323,-0.02661 -0.122433,-0.05589 -0.07452,-0.03194 -0.138401,-0.06654 -0.06388,-0.0346 -0.111786,-0.07985 -0.04791,-0.04525 -0.07452,-0.103801 -0.02662,-0.06122 -0.02662,-0.143725 0,-0.07452 0.02662,-0.138402 0.02661,-0.06388 0.07719,-0.111786 0.05323,-0.04791 0.127756,-0.07452 0.07719,-0.02662 0.173002,-0.02662 0.07985,0 0.141063,0.01597 0.06388,0.01331 0.111786,0.0346 0.04791,0.01863 0.07719,0.03992 0.03194,0.02129 0.04791,0.03194 l -0.09582,0.141063 q -0.0346,-0.02661 -0.106463,-0.06122 -0.0692,-0.0346 -0.178325,-0.0346 -0.10114,0 -0.157033,0.04791 -0.05589,0.04525 -0.05589,0.127755 0,0.09049 0.0692,0.138402 0.0692,0.04525 0.175664,0.09049 0.07719,0.03194 0.149048,0.0692 0.07186,0.0346 0.125094,0.07985 0.05589,0.04525 0.08783,0.106463 0.0346,0.05856 0.0346,0.138402 z" />
    <path
       id="path898"
       style="font-style:normal;font-variant:normal;font-weight:normal;font-stretch:normal;font-size:2.66157px;line-height:1.25;font-family:Kievit;-inkscape-font-specification:Kievit;stroke-width:0.199627"
       d="m 45.512833,19.208398 q -0.02928,0.01863 -0.09848,0.04791 -0.06654,0.02928 -0.170342,0.02928 -0.159694,0 -0.239541,-0.08783 -0.07985,-0.09049 -0.07985,-0.250187 v -0.817102 h -0.210263 v -0.154371 h 0.210263 v -0.364635 h 0.194294 v 0.364635 h 0.322051 v 0.154371 h -0.322051 v 0.798471 q 0,0.09582 0.03194,0.143724 0.03194,0.04525 0.117109,0.04525 0.06122,0 0.109124,-0.02129 0.04791,-0.02129 0.06388,-0.0346 l 0.07186,0.146387 z" />
    <path
       id="path900"
       style="font-style:normal;font-variant:normal;font-weight:normal;font-stretch:normal;font-size:2.66157px;line-height:1.25;font-family:Kievit;-inkscape-font-specification:Kievit;stroke-width:0.199627"
       d="m 45.905832,17.449099 q 0.06122,0 0.101139,0.04258 0.04259,0.03992 0.04259,0.101141 0,0.06122 -0.04259,0.103801 -0.03992,0.03992 -0.101139,0.03992 -0.06122,0 -0.103802,-0.03992 -0.03992,-0.04259 -0.03992,-0.103801 0,-0.06122 0.03992,-0.101141 0.04259,-0.04258 0.103802,-0.04258 z m -0.09848,1.804545 v -1.277553 h 0.196956 v 1.277553 z" />
    <path
       id="path902"
       style="font-style:normal;font-variant:normal;font-weight:normal;font-stretch:normal;font-size:2.66157px;line-height:1.25;font-family:Kievit;-inkscape-font-specification:Kievit;stroke-width:0.199627"
       d="m 47.497451,17.976091 v 0.154371 h -0.196956 q 0.09316,0.117109 0.09316,0.282126 0,0.10114 -0.03726,0.18631 -0.0346,0.08517 -0.10114,0.149048 -0.06654,0.06122 -0.162356,0.09848 -0.09316,0.0346 -0.210264,0.0346 -0.07452,0 -0.141063,-0.01597 -0.02395,0.01331 -0.05589,0.03726 -0.02928,0.02395 -0.02928,0.0692 0,0.05323 0.05057,0.07452 0.05323,0.02129 0.130417,0.02661 0.103801,0.0053 0.22091,0.01331 0.117109,0.0053 0.215587,0.03992 0.09848,0.03194 0.162356,0.109124 0.06654,0.07719 0.06654,0.226234 0,0.09848 -0.05323,0.175663 -0.05057,0.07985 -0.138402,0.133079 -0.08517,0.05589 -0.199618,0.08517 -0.114447,0.02928 -0.236879,0.02928 -0.106462,0 -0.199618,-0.02129 -0.09315,-0.01863 -0.162356,-0.06388 -0.0692,-0.04258 -0.109124,-0.109124 -0.03992,-0.06654 -0.03992,-0.162356 0,-0.109124 0.06122,-0.194295 0.06122,-0.08251 0.157033,-0.13574 -0.05323,-0.02661 -0.08517,-0.0692 -0.02928,-0.04525 -0.02928,-0.11977 0,-0.06388 0.03726,-0.114448 0.03992,-0.05323 0.09316,-0.08517 -0.109124,-0.06122 -0.167679,-0.165017 -0.05855,-0.103802 -0.05855,-0.231557 0,-0.10114 0.0346,-0.18631 0.03726,-0.08517 0.103802,-0.146386 0.06654,-0.06388 0.159694,-0.09848 0.09582,-0.03726 0.212925,-0.03726 0.106463,0 0.199618,0.03194 z m -0.303418,0.436497 q 0,-0.13574 -0.08251,-0.22091 -0.07985,-0.08783 -0.228896,-0.08783 -0.149047,0 -0.231556,0.08783 -0.07985,0.08517 -0.07985,0.22091 0,0.13574 0.07985,0.223572 0.08251,0.08517 0.231556,0.08517 0.149049,0 0.228896,-0.08517 0.08251,-0.08783 0.08251,-0.223572 z m -0.465776,0.825087 q -0.173002,0.101139 -0.173002,0.268818 0,0.09316 0.07719,0.157033 0.07719,0.06654 0.250186,0.06654 0.191634,0 0.306082,-0.07186 0.117109,-0.0692 0.117109,-0.188972 0,-0.07452 -0.03194,-0.117109 -0.02928,-0.04258 -0.07719,-0.06388 -0.04791,-0.01863 -0.106462,-0.02395 -0.05855,-0.0053 -0.114449,-0.008 -0.06122,-0.0053 -0.125092,-0.008 -0.06388,-0.0027 -0.122433,-0.01065 z" />
    <path
       id="path904"
       style="font-style:normal;font-variant:normal;font-weight:normal;font-stretch:normal;font-size:2.66157px;line-height:1.25;font-family:Kievit;-inkscape-font-specification:Kievit;stroke-width:0.199627"
       d="m 48.468548,19.253644 q -0.0053,-0.02661 -0.01065,-0.07452 -0.0053,-0.05057 -0.008,-0.07985 -0.02129,0.02928 -0.05855,0.06122 -0.0346,0.03194 -0.08251,0.06122 -0.04791,0.02662 -0.109125,0.04525 -0.06122,0.01863 -0.133078,0.01863 -0.159694,0 -0.263497,-0.09315 Q 47.702,19.099294 47.702,18.942257 q 0,-0.127756 0.06122,-0.210264 0.06388,-0.08517 0.162356,-0.135741 0.101139,-0.05057 0.22091,-0.07186 0.119771,-0.02129 0.23688,-0.02129 h 0.05589 v -0.11977 q 0,-0.122432 -0.05323,-0.194295 -0.05323,-0.07186 -0.202278,-0.07186 -0.0692,0 -0.122432,0.01597 -0.05323,0.01597 -0.09582,0.03992 -0.03992,0.02129 -0.0692,0.04525 -0.02661,0.02129 -0.04525,0.03726 l -0.103802,-0.13574 q 0.02396,-0.02129 0.06122,-0.05057 0.03992,-0.03194 0.09315,-0.05856 0.05589,-0.02928 0.127755,-0.04791 0.07452,-0.01863 0.167679,-0.01863 0.210264,0 0.32205,0.103801 0.114447,0.10114 0.114447,0.319388 v 0.596192 q 0,0.09582 0.008,0.170341 0.008,0.07452 0.02129,0.11977 z m -0.02928,-0.606838 h -0.05589 q -0.103802,0 -0.191634,0.01597 -0.08517,0.01331 -0.149047,0.04791 -0.06122,0.0346 -0.09848,0.09049 -0.0346,0.05589 -0.0346,0.13574 0,0.05057 0.01863,0.08517 0.01863,0.0346 0.04525,0.05589 0.02928,0.02129 0.06122,0.03194 0.0346,0.008 0.06388,0.008 0.07186,0 0.127756,-0.02129 0.05589,-0.02129 0.09582,-0.05057 0.04258,-0.02928 0.07186,-0.05856 0.02928,-0.03194 0.04525,-0.05323 z" />
    <path
       id="path906"
       style="font-style:normal;font-variant:normal;font-weight:normal;font-stretch:normal;font-size:2.66157px;line-height:1.25;font-family:Kievit;-inkscape-font-specification:Kievit;stroke-width:0.199627"
       d="m 49.9315,19.157828 q -0.01863,0.01597 -0.05323,0.03992 -0.03194,0.02129 -0.08251,0.04258 -0.05057,0.01863 -0.117109,0.03194 -0.06654,0.01331 -0.149047,0.01331 -0.141064,0 -0.250189,-0.05589 -0.109123,-0.05589 -0.183647,-0.146386 -0.07186,-0.09315 -0.109125,-0.212926 -0.03726,-0.122432 -0.03726,-0.255511 0,-0.162355 0.04791,-0.287449 0.04791,-0.127756 0.127756,-0.210264 0.07985,-0.08517 0.186309,-0.127756 0.106464,-0.04525 0.226234,-0.04525 0.07985,0 0.141064,0.01331 0.06122,0.01331 0.109124,0.0346 0.04791,0.01863 0.08251,0.03992 0.0346,0.02129 0.05855,0.03992 l -0.09316,0.146386 q -0.05057,-0.03726 -0.11977,-0.07186 -0.0692,-0.0346 -0.180987,-0.0346 -0.09848,0 -0.17034,0.03992 -0.07186,0.03726 -0.117109,0.103801 -0.04525,0.06654 -0.0692,0.159695 -0.02129,0.09049 -0.02129,0.194294 0,0.10114 0.02129,0.194295 0.02396,0.09315 0.0692,0.162356 0.04791,0.0692 0.119771,0.111786 0.07186,0.03992 0.173001,0.03992 0.05855,0 0.109124,-0.01065 0.05323,-0.01331 0.09316,-0.02928 0.03992,-0.01863 0.06654,-0.03726 0.02928,-0.01863 0.04259,-0.02928 l 0.07985,0.146387 z" />
    <path
       id="path908"
       style="font-style:normal;font-variant:normal;font-weight:normal;font-stretch:normal;font-size:2.66157px;line-height:1.25;font-family:Kievit;-inkscape-font-specification:Kievit;stroke-width:0.199627"
       d="m 50.345247,17.449099 q 0.06122,0 0.101139,0.04258 0.04259,0.03992 0.04259,0.101141 0,0.06122 -0.04259,0.103801 -0.03992,0.03992 -0.101139,0.03992 -0.06122,0 -0.103802,-0.03992 -0.03992,-0.04259 -0.03992,-0.103801 0,-0.06122 0.03992,-0.101141 0.04258,-0.04258 0.103802,-0.04258 z m -0.09848,1.804545 v -1.277553 h 0.196956 v 1.277553 z" />
    <path
       id="path910"
       style="font-style:normal;font-variant:normal;font-weight:normal;font-stretch:normal;font-size:2.66157px;line-height:1.25;font-family:Kievit;-inkscape-font-specification:Kievit;stroke-width:0.199627"
       d="m 51.97679,18.612206 q 0,0.111786 -0.0346,0.231556 -0.03194,0.119771 -0.1038,0.218249 -0.07186,0.09582 -0.186311,0.159694 -0.114447,0.06388 -0.276803,0.06388 -0.162356,0 -0.274142,-0.06122 -0.111785,-0.06388 -0.183647,-0.159694 -0.0692,-0.09848 -0.10114,-0.215587 -0.03194,-0.119771 -0.03194,-0.231557 0,-0.111786 0.02928,-0.231557 0.03194,-0.11977 0.10114,-0.215587 0.0692,-0.09848 0.178325,-0.162356 0.111786,-0.06388 0.274142,-0.06388 0.162356,0 0.276803,0.06388 0.114448,0.06122 0.188972,0.159695 0.07452,0.09582 0.109124,0.215587 0.0346,0.117109 0.0346,0.228895 z m -0.207603,0.0053 q 0,-0.103801 -0.02662,-0.194295 -0.02395,-0.09315 -0.07719,-0.162355 -0.05057,-0.0692 -0.127756,-0.109125 -0.07452,-0.03992 -0.173001,-0.03992 -0.10114,0 -0.173002,0.03992 -0.0692,0.03992 -0.114447,0.109125 -0.04258,0.06654 -0.06388,0.157032 -0.02129,0.09049 -0.02129,0.194295 0,0.103801 0.02129,0.196956 0.02395,0.09049 0.07186,0.159694 0.04791,0.0692 0.11977,0.109125 0.07186,0.03992 0.173002,0.03992 0.09848,0 0.173002,-0.03992 0.07452,-0.03992 0.122433,-0.106463 0.04791,-0.0692 0.07186,-0.159694 0.02395,-0.09049 0.02395,-0.194295 z m -0.244864,-1.136468 h 0.290112 l -0.359312,0.335358 h -0.175664 z" />
    <path
       id="path912"
       style="font-style:normal;font-variant:normal;font-weight:normal;font-stretch:normal;font-size:2.66157px;line-height:1.25;font-family:Kievit;-inkscape-font-specification:Kievit;stroke-width:0.199627"
       d="m 53.090243,19.253644 v -0.872995 q 0,-0.11977 -0.05057,-0.188971 -0.04791,-0.07186 -0.175664,-0.07186 -0.07452,0 -0.138401,0.03194 -0.06122,0.03194 -0.111787,0.07186 -0.04791,0.03992 -0.07985,0.07985 -0.02928,0.03726 -0.03992,0.05057 v 0.89961 h -0.194294 v -1.277553 h 0.194294 v 0.183648 q 0.02129,-0.02662 0.05589,-0.06388 0.03726,-0.03726 0.08783,-0.0692 0.05323,-0.0346 0.119771,-0.05855 0.06654,-0.02395 0.151709,-0.02395 0.10114,0 0.170341,0.03194 0.07186,0.03194 0.117109,0.08517 0.04525,0.05323 0.06654,0.127755 0.02129,0.07186 0.02129,0.154371 v 0.910257 z" />
    <path
       id="path914"
       style="font-style:normal;font-variant:normal;font-weight:normal;font-stretch:normal;font-size:2.66157px;line-height:1.25;font-family:Kievit;-inkscape-font-specification:Kievit;stroke-width:0.199627"
       d="m 54.971722,19.253644 q -0.0053,-0.02661 -0.01065,-0.07452 -0.0053,-0.05057 -0.008,-0.07985 -0.02129,0.02928 -0.05856,0.06122 -0.0346,0.03194 -0.08251,0.06122 -0.04791,0.02662 -0.109126,0.04525 -0.06122,0.01863 -0.133077,0.01863 -0.159695,0 -0.263497,-0.09315 -0.101139,-0.09315 -0.101139,-0.250187 0,-0.127756 0.06122,-0.210264 0.06388,-0.08517 0.162357,-0.135741 0.101139,-0.05057 0.22091,-0.07186 0.11977,-0.02129 0.23688,-0.02129 h 0.05589 v -0.11977 q 0,-0.122432 -0.05323,-0.194295 -0.05323,-0.07186 -0.202278,-0.07186 -0.0692,0 -0.122432,0.01597 -0.05323,0.01597 -0.09582,0.03992 -0.03992,0.02129 -0.0692,0.04525 -0.02661,0.02129 -0.04525,0.03726 l -0.103802,-0.13574 q 0.02395,-0.02129 0.06122,-0.05057 0.03992,-0.03194 0.09316,-0.05856 0.05589,-0.02928 0.127756,-0.04791 0.07452,-0.01863 0.167679,-0.01863 0.210264,0 0.32205,0.103801 0.114447,0.10114 0.114447,0.319388 v 0.596192 q 0,0.09582 0.008,0.170341 0.008,0.07452 0.02129,0.11977 z m -0.02928,-0.606838 h -0.05589 q -0.103802,0 -0.191634,0.01597 -0.08517,0.01331 -0.149047,0.04791 -0.06122,0.0346 -0.09848,0.09049 -0.0346,0.05589 -0.0346,0.13574 0,0.05057 0.01863,0.08517 0.01863,0.0346 0.04525,0.05589 0.02928,0.02129 0.06122,0.03194 0.0346,0.008 0.06388,0.008 0.07186,0 0.127756,-0.02129 0.05589,-0.02129 0.09582,-0.05057 0.04259,-0.02928 0.07186,-0.05856 0.02928,-0.03194 0.04525,-0.05323 z" />
    <path
       id="path916"
       style="font-style:normal;font-variant:normal;font-weight:normal;font-stretch:normal;font-size:2.66157px;line-height:1.25;font-family:Kievit;-inkscape-font-specification:Kievit;stroke-width:0.199627"
       d="m 56.593154,17.976091 v 0.154371 h -0.196956 q 0.09315,0.117109 0.09315,0.282126 0,0.10114 -0.03726,0.18631 -0.0346,0.08517 -0.101141,0.149048 -0.06654,0.06122 -0.162355,0.09848 -0.09316,0.0346 -0.210264,0.0346 -0.07452,0 -0.141064,-0.01597 -0.02395,0.01331 -0.05589,0.03726 -0.02928,0.02395 -0.02928,0.0692 0,0.05323 0.05057,0.07452 0.05323,0.02129 0.130416,0.02661 0.103802,0.0053 0.22091,0.01331 0.117109,0.0053 0.215587,0.03992 0.09848,0.03194 0.162357,0.109124 0.06654,0.07719 0.06654,0.226234 0,0.09848 -0.05323,0.175663 -0.05057,0.07985 -0.138402,0.133079 -0.08517,0.05589 -0.199618,0.08517 -0.114447,0.02928 -0.236879,0.02928 -0.106463,0 -0.199618,-0.02129 -0.09315,-0.01863 -0.162356,-0.06388 -0.0692,-0.04258 -0.109124,-0.109124 -0.03992,-0.06654 -0.03992,-0.162356 0,-0.109124 0.06122,-0.194295 0.06122,-0.08251 0.157033,-0.13574 -0.05323,-0.02661 -0.08517,-0.0692 -0.02928,-0.04525 -0.02928,-0.11977 0,-0.06388 0.03726,-0.114448 0.03992,-0.05323 0.09315,-0.08517 -0.109125,-0.06122 -0.167679,-0.165017 -0.05855,-0.103802 -0.05855,-0.231557 0,-0.10114 0.0346,-0.18631 0.03726,-0.08517 0.103803,-0.146386 0.06654,-0.06388 0.159694,-0.09848 0.09582,-0.03726 0.212925,-0.03726 0.106463,0 0.199618,0.03194 z m -0.303418,0.436497 q 0,-0.13574 -0.08251,-0.22091 -0.07985,-0.08783 -0.228896,-0.08783 -0.149046,0 -0.231556,0.08783 -0.07985,0.08517 -0.07985,0.22091 0,0.13574 0.07985,0.223572 0.08251,0.08517 0.231556,0.08517 0.149049,0 0.228896,-0.08517 0.08251,-0.08783 0.08251,-0.223572 z m -0.465776,0.825087 q -0.173001,0.101139 -0.173001,0.268818 0,0.09316 0.07719,0.157033 0.07719,0.06654 0.250186,0.06654 0.191635,0 0.306082,-0.07186 0.117109,-0.0692 0.117109,-0.188972 0,-0.07452 -0.03194,-0.117109 -0.02928,-0.04258 -0.07719,-0.06388 -0.04791,-0.01863 -0.106462,-0.02395 -0.05855,-0.0053 -0.114449,-0.008 -0.06122,-0.0053 -0.125092,-0.008 -0.06388,-0.0027 -0.122433,-0.01065 z" />
    <path
       id="path918"
       style="font-style:normal;font-variant:normal;font-weight:normal;font-stretch:normal;font-size:2.66157px;line-height:1.25;font-family:Kievit;-inkscape-font-specification:Kievit;stroke-width:0.199627"
       d="m 57.520465,18.157077 q -0.01065,-0.0053 -0.03726,-0.01331 -0.02395,-0.008 -0.07452,-0.008 -0.07186,0 -0.127755,0.0346 -0.05589,0.0346 -0.09582,0.07985 -0.03992,0.04525 -0.06388,0.08783 -0.02129,0.04259 -0.02662,0.05856 v 0.857025 h -0.194294 v -1.277553 h 0.194294 v 0.199617 q 0.01863,-0.03194 0.04791,-0.07186 0.03194,-0.03992 0.07452,-0.07452 0.04259,-0.03726 0.09582,-0.06122 0.05589,-0.02395 0.122433,-0.02395 0.05855,0 0.08783,0.01065 0.03194,0.01065 0.04525,0.01597 z" />
    <path
       id="path920"
       style="font-style:normal;font-variant:normal;font-weight:normal;font-stretch:normal;font-size:2.66157px;line-height:1.25;font-family:Kievit;-inkscape-font-specification:Kievit;stroke-width:0.199627"
       d="m 58.901031,18.612206 q 0,0.111786 -0.0346,0.231556 -0.03194,0.119771 -0.103801,0.218249 -0.07186,0.09582 -0.18631,0.159694 -0.114447,0.06388 -0.276803,0.06388 -0.162356,0 -0.274142,-0.06122 -0.111786,-0.06388 -0.183648,-0.159694 -0.0692,-0.09848 -0.10114,-0.215587 -0.03194,-0.119771 -0.03194,-0.231557 0,-0.111786 0.02928,-0.231557 0.03194,-0.11977 0.101139,-0.215587 0.0692,-0.09848 0.178325,-0.162356 0.111786,-0.06388 0.274142,-0.06388 0.162356,0 0.276803,0.06388 0.114448,0.06122 0.188972,0.159695 0.07452,0.09582 0.109124,0.215587 0.0346,0.117109 0.0346,0.228895 z m -0.207604,0.0053 q 0,-0.103801 -0.02661,-0.194295 -0.02396,-0.09315 -0.07719,-0.162355 -0.05057,-0.0692 -0.127756,-0.109125 -0.07452,-0.03992 -0.173001,-0.03992 -0.101141,0 -0.173003,0.03992 -0.0692,0.03992 -0.114447,0.109125 -0.04259,0.06654 -0.06388,0.157032 -0.02129,0.09049 -0.02129,0.194295 0,0.103801 0.02129,0.196956 0.02395,0.09049 0.07186,0.159694 0.04791,0.0692 0.11977,0.109125 0.07186,0.03992 0.173002,0.03992 0.09848,0 0.173002,-0.03992 0.07452,-0.03992 0.122433,-0.106463 0.04791,-0.0692 0.07186,-0.159694 0.02395,-0.09049 0.02395,-0.194295 z" />
    <path
       id="path922"
       style="font-style:normal;font-variant:normal;font-weight:normal;font-stretch:normal;font-size:2.66157px;line-height:1.25;font-family:Kievit;-inkscape-font-specification:Kievit;stroke-width:0.199627"
       d="m 60.307256,18.612206 q 0,0.151709 -0.04258,0.276803 -0.03992,0.122432 -0.11711,0.210264 -0.07452,0.08783 -0.178325,0.138402 -0.1038,0.04791 -0.226232,0.04791 -0.13574,0 -0.212927,-0.03992 -0.07452,-0.03992 -0.111786,-0.07186 v 0.662731 h -0.194294 v -1.860437 h 0.194294 V 18.1145 q 0.05057,-0.06122 0.141064,-0.114447 0.09049,-0.05589 0.228895,-0.05589 0.117109,0 0.212925,0.04525 0.09582,0.04525 0.162356,0.130417 0.0692,0.08517 0.106463,0.210264 0.03726,0.122433 0.03726,0.282127 z m -0.207602,0.0053 q 0,-0.106463 -0.02129,-0.196956 -0.02129,-0.09315 -0.06388,-0.159694 -0.04259,-0.06654 -0.109123,-0.103802 -0.06654,-0.03726 -0.157033,-0.03726 -0.06654,0 -0.122433,0.02129 -0.05589,0.02129 -0.09848,0.05057 -0.03992,0.02928 -0.0692,0.05855 -0.02662,0.02928 -0.03992,0.04791 v 0.702654 q 0.04525,0.03992 0.114448,0.07985 0.07186,0.03726 0.191633,0.03726 0.09049,0 0.159694,-0.03726 0.07186,-0.03726 0.119771,-0.103801 0.04791,-0.0692 0.07186,-0.159694 0.02395,-0.09049 0.02395,-0.199618 z" />
    <path
       id="path924"
       style="font-style:normal;font-variant:normal;font-weight:normal;font-stretch:normal;font-size:2.66157px;line-height:1.25;font-family:Kievit;-inkscape-font-specification:Kievit;stroke-width:0.199627"
       d="m 60.728573,18.609544 q 0.0027,0.10114 0.02395,0.194295 0.02395,0.09315 0.07186,0.162356 0.04791,0.0692 0.122432,0.111786 0.07452,0.03992 0.183649,0.03992 0.06654,0 0.122433,-0.01331 0.05589,-0.01331 0.09848,-0.02928 0.04525,-0.01863 0.07719,-0.03726 0.0346,-0.02129 0.05589,-0.0346 l 0.07985,0.151709 q -0.02395,0.01597 -0.06388,0.03992 -0.03726,0.02129 -0.09316,0.04258 -0.05323,0.01863 -0.125094,0.03194 -0.0692,0.01597 -0.157033,0.01597 -0.151709,0 -0.266157,-0.05323 -0.111786,-0.05323 -0.188971,-0.143725 -0.07452,-0.09316 -0.111786,-0.215587 -0.03726,-0.125094 -0.03726,-0.266157 0,-0.141064 0.03992,-0.260834 0.04259,-0.122432 0.117109,-0.210264 0.07719,-0.09049 0.183649,-0.141063 0.106463,-0.05057 0.234218,-0.05057 0.127755,0 0.226233,0.04791 0.10114,0.04791 0.165018,0.13574 0.06388,0.08783 0.09049,0.210264 0.02928,0.122432 0.01597,0.27148 h -0.865011 z m 0.670716,-0.154371 q -0.0027,-0.06654 -0.02129,-0.127755 -0.01597,-0.06388 -0.05323,-0.111786 -0.0346,-0.04791 -0.09316,-0.07452 -0.05855,-0.02928 -0.141063,-0.02928 -0.154371,0 -0.239542,0.09582 -0.08517,0.09582 -0.111785,0.247526 z" />
    <path
       id="path926"
       style="font-style:normal;font-variant:normal;font-weight:normal;font-stretch:normal;font-size:2.66157px;line-height:1.25;font-family:Kievit;-inkscape-font-specification:Kievit;stroke-width:0.199627"
       d="m 62.807884,19.157828 q -0.01863,0.01597 -0.05323,0.03992 -0.03194,0.02129 -0.08251,0.04258 -0.05057,0.01863 -0.117109,0.03194 -0.06654,0.01331 -0.149049,0.01331 -0.141063,0 -0.250187,-0.05589 -0.109124,-0.05589 -0.183649,-0.146386 -0.07186,-0.09315 -0.109124,-0.212926 -0.03726,-0.122432 -0.03726,-0.255511 0,-0.162355 0.04791,-0.287449 0.04791,-0.127756 0.127756,-0.210264 0.07985,-0.08517 0.18631,-0.127756 0.106462,-0.04525 0.226233,-0.04525 0.07985,0 0.141063,0.01331 0.06122,0.01331 0.109125,0.0346 0.04791,0.01863 0.08251,0.03992 0.0346,0.02129 0.05855,0.03992 l -0.09316,0.146386 q -0.05057,-0.03726 -0.119771,-0.07186 -0.0692,-0.0346 -0.180986,-0.0346 -0.09848,0 -0.170341,0.03992 -0.07186,0.03726 -0.117109,0.103801 -0.04525,0.06654 -0.0692,0.159695 -0.02129,0.09049 -0.02129,0.194294 0,0.10114 0.02129,0.194295 0.02395,0.09315 0.0692,0.162356 0.04791,0.0692 0.119771,0.111786 0.07186,0.03992 0.173002,0.03992 0.05855,0 0.109124,-0.01065 0.05323,-0.01331 0.09316,-0.02928 0.03992,-0.01863 0.06654,-0.03726 0.02928,-0.01863 0.04259,-0.02928 l 0.07985,0.146387 z" />
    <path
       id="path928"
       style="font-style:normal;font-variant:normal;font-weight:normal;font-stretch:normal;font-size:2.66157px;line-height:1.25;font-family:Kievit;-inkscape-font-specification:Kievit;stroke-width:0.199627"
       d="m 63.285509,17.976091 v 0.872995 q 0,0.11977 0.04791,0.191633 0.05057,0.0692 0.180987,0.0692 0.07186,0 0.13574,-0.03194 0.06388,-0.03194 0.111786,-0.07186 0.04791,-0.03992 0.07719,-0.07718 0.03194,-0.03992 0.04258,-0.05323 v -0.89961 h 0.194295 v 1.008735 q 0,0.08251 0.008,0.157032 0.008,0.07452 0.01597,0.111786 H 63.90301 q -0.0053,-0.02395 -0.01065,-0.08251 -0.0053,-0.05856 -0.008,-0.106463 -0.02129,0.02928 -0.05855,0.0692 -0.03726,0.03726 -0.09049,0.07186 -0.05057,0.0346 -0.11711,0.05589 -0.06654,0.02395 -0.149047,0.02395 -0.10114,0 -0.173003,-0.03194 -0.07186,-0.03194 -0.117109,-0.08517 -0.04525,-0.05323 -0.06654,-0.125094 -0.02129,-0.07452 -0.02129,-0.157032 v -0.910257 z" />
    <path
       id="path930"
       style="font-style:normal;font-variant:normal;font-weight:normal;font-stretch:normal;font-size:2.66157px;line-height:1.25;font-family:Kievit;-inkscape-font-specification:Kievit;stroke-width:0.199627"
       d="m 65.176141,19.253644 q -0.0053,-0.02661 -0.01065,-0.07452 -0.0053,-0.05057 -0.008,-0.07985 -0.02129,0.02928 -0.05855,0.06122 -0.0346,0.03194 -0.08251,0.06122 -0.04791,0.02662 -0.109124,0.04525 -0.06122,0.01863 -0.133078,0.01863 -0.159694,0 -0.263496,-0.09315 -0.101139,-0.09315 -0.101139,-0.250187 0,-0.127756 0.06122,-0.210264 0.06388,-0.08517 0.162356,-0.135741 0.101139,-0.05057 0.22091,-0.07186 0.119771,-0.02129 0.23688,-0.02129 h 0.05589 v -0.11977 q 0,-0.122432 -0.05323,-0.194295 -0.05323,-0.07186 -0.20228,-0.07186 -0.0692,0 -0.122432,0.01597 -0.05323,0.01597 -0.09582,0.03992 -0.03992,0.02129 -0.0692,0.04525 -0.02661,0.02129 -0.04525,0.03726 l -0.103802,-0.13574 q 0.02396,-0.02129 0.06122,-0.05057 0.03992,-0.03194 0.09316,-0.05856 0.05589,-0.02928 0.127755,-0.04791 0.07452,-0.01863 0.167679,-0.01863 0.210264,0 0.32205,0.103801 0.114447,0.10114 0.114447,0.319388 v 0.596192 q 0,0.09582 0.008,0.170341 0.008,0.07452 0.02129,0.11977 z m -0.02928,-0.606838 h -0.05589 q -0.1038,0 -0.191632,0.01597 -0.08517,0.01331 -0.149049,0.04791 -0.06122,0.0346 -0.09848,0.09049 -0.0346,0.05589 -0.0346,0.13574 0,0.05057 0.01863,0.08517 0.01863,0.0346 0.04525,0.05589 0.02928,0.02129 0.06122,0.03194 0.0346,0.008 0.06388,0.008 0.07186,0 0.127754,-0.02129 0.05589,-0.02129 0.09582,-0.05057 0.04259,-0.02928 0.07186,-0.05856 0.02928,-0.03194 0.04525,-0.05323 z" />
    <path
       id="path932"
       style="font-style:normal;font-variant:normal;font-weight:normal;font-stretch:normal;font-size:2.66157px;line-height:1.25;font-family:Kievit;-inkscape-font-specification:Kievit;stroke-width:0.199627"
       d="m 66.388901,18.157077 q -0.01065,-0.0053 -0.03726,-0.01331 -0.02395,-0.008 -0.07452,-0.008 -0.07186,0 -0.127754,0.0346 -0.05589,0.0346 -0.09582,0.07985 -0.03992,0.04525 -0.06388,0.08783 -0.02129,0.04259 -0.02662,0.05856 v 0.857025 h -0.194294 v -1.277553 h 0.194294 v 0.199617 q 0.01863,-0.03194 0.04791,-0.07186 0.03194,-0.03992 0.07452,-0.07452 0.04259,-0.03726 0.09582,-0.06122 0.05589,-0.02395 0.122432,-0.02395 0.05856,0 0.08783,0.01065 0.03194,0.01065 0.04525,0.01597 z" />
    <path
       id="path934"
       style="font-style:normal;font-variant:normal;font-weight:normal;font-stretch:normal;font-size:2.66157px;line-height:1.25;font-family:Kievit;-inkscape-font-specification:Kievit;stroke-width:0.199627"
       d="m 66.803315,17.449099 q 0.06122,0 0.101139,0.04258 0.04259,0.03992 0.04259,0.101141 0,0.06122 -0.04259,0.103801 -0.03992,0.03992 -0.101139,0.03992 -0.06122,0 -0.103802,-0.03992 -0.03992,-0.04259 -0.03992,-0.103801 0,-0.06122 0.03992,-0.101141 0.04259,-0.04258 0.103802,-0.04258 z m -0.09848,1.804545 v -1.277553 h 0.196956 v 1.277553 z" />
    <path
       id="path936"
       style="font-style:normal;font-variant:normal;font-weight:normal;font-stretch:normal;font-size:2.66157px;line-height:1.25;font-family:Kievit;-inkscape-font-specification:Kievit;stroke-width:0.199627"
       d="m 68.019654,19.253644 q -0.0053,-0.02661 -0.01065,-0.07452 -0.0053,-0.05057 -0.008,-0.07985 -0.02129,0.02928 -0.05855,0.06122 -0.0346,0.03194 -0.08251,0.06122 -0.04791,0.02662 -0.109123,0.04525 -0.06122,0.01863 -0.13308,0.01863 -0.159694,0 -0.263494,-0.09315 -0.10114,-0.09315 -0.10114,-0.250187 0,-0.127756 0.06122,-0.210264 0.06388,-0.08517 0.162356,-0.135741 0.10114,-0.05057 0.220911,-0.07186 0.119771,-0.02129 0.236879,-0.02129 h 0.05589 v -0.11977 q 0,-0.122432 -0.05323,-0.194295 -0.05323,-0.07186 -0.20228,-0.07186 -0.0692,0 -0.122432,0.01597 -0.05323,0.01597 -0.09582,0.03992 -0.03992,0.02129 -0.0692,0.04525 -0.02662,0.02129 -0.04525,0.03726 l -0.103801,-0.13574 q 0.02395,-0.02129 0.06122,-0.05057 0.03992,-0.03194 0.09315,-0.05856 0.05589,-0.02928 0.127755,-0.04791 0.07452,-0.01863 0.167679,-0.01863 0.210264,0 0.32205,0.103801 0.114448,0.10114 0.114448,0.319388 v 0.596192 q 0,0.09582 0.008,0.170341 0.008,0.07452 0.02129,0.11977 z m -0.02928,-0.606838 h -0.05589 q -0.1038,0 -0.191632,0.01597 -0.08517,0.01331 -0.149049,0.04791 -0.06122,0.0346 -0.09848,0.09049 -0.0346,0.05589 -0.0346,0.13574 0,0.05057 0.01863,0.08517 0.01863,0.0346 0.04525,0.05589 0.02928,0.02129 0.06122,0.03194 0.0346,0.008 0.06388,0.008 0.07186,0 0.127755,-0.02129 0.05589,-0.02129 0.09582,-0.05057 0.04258,-0.02928 0.07186,-0.05856 0.02928,-0.03194 0.04525,-0.05323 z" />
  </g>
</svg>
