<svg xmlns:svg="http://www.w3.org/2000/svg" xmlns="http://www.w3.org/2000/svg" xmlns:xlink="http://www.w3.org/1999/xlink" width="141" height="22.3" viewBox="0 0 333.3 45.8" id="svg2957" version="1.1">
	<!--A-->
	<path class="logo-fill l-agro" d="M39.8,44.3l-19.4-44c-0.1-0.3-0.6-0.3-0.7,0l-19.3,44c-0.1,0.3,0.1,0.6,0.4,0.6h6.8c0.2,0,0.3-0.1,0.4-0.2l11.7-26c0.1-0.3,0.6-0.3,0.7,0l11.9,25.9c0.1,0.1,0.2,0.2,0.4,0.2h6.8C39.7,44.8,39.9,44.5,39.8,44.3z"></path>
	<!--R-->
	<path class="logo-fill l-agro" d="M114.6,29.2c-0.1-0.1,0-0.3,0.1-0.4c1.3-0.8,2.4-1.7,3.3-2.7c1-1.1,1.8-2.2,2.4-3.3c0.6-1.2,1-2.3,1.3-3.5s0.4-2.3,0.4-3.4
					c0-1.4-0.2-2.7-0.6-4.2c-0.4-1.4-1-2.7-1.8-4s-1.8-2.4-3.1-3.5c-1.3-1.1-2.9-1.9-4.7-2.6c-0.2-0.1-0.5-0.2-0.9-0.3
					c-0.4-0.1-0.8-0.2-1.2-0.3c-0.4-0.1-0.7-0.2-1.1-0.2c-0.3-0.1-0.5-0.1-0.6-0.1h-20c-0.2,0-0.3,0.1-0.3,0.3v43.4
					c0,0.2,0.1,0.3,0.3,0.3h7c0.2,0,0.3-0.1,0.3-0.3V31.2c0-0.2,0.1-0.3,0.3-0.3h10.8c0.1,0,0.2,0.1,0.3,0.2l8,13.7
					c0.1,0.1,0.2,0.2,0.3,0.2h8c0.2,0,0.4-0.3,0.3-0.5L114.6,29.2z M113.8,18.3c-0.3,0.9-0.8,1.7-1.4,2.4c-0.6,0.7-1.3,1.3-2.1,1.8
					c-0.8,0.5-1.6,0.7-2.6,0.7h-12c-0.2,0-0.3-0.1-0.3-0.3V8.8c0-0.2,0.1-0.3,0.3-0.3h12c0.2,0,0.6,0.1,1,0.2c0.5,0.1,0.9,0.3,1.2,0.4
					c1.5,0.7,2.6,1.7,3.3,2.9c0.7,1.2,1,2.5,1,3.8C114.3,16.6,114.1,17.4,113.8,18.3z"></path>
	<!--O-->
	<path class="logo-fill l-agro" d="M169.7,14c-1.2-2.8-2.7-5.2-4.8-7.3c-2-2.1-4.5-3.7-7.2-4.9c-2.8-1.2-5.8-1.8-9-1.8c-3.3,0-6.3,0.6-9,1.8
					c-2.8,1.2-5.2,2.9-7.3,4.9c-2,2.1-3.7,4.5-4.8,7.3c-1.2,2.8-1.8,5.7-1.8,8.8s0.6,6.1,1.8,8.8c1.1,2.8,2.8,5.2,4.8,7.3
					c2.1,2.1,4.5,3.8,7.3,5s5.8,1.8,9,1.8c3.1,0,6-0.6,8.8-1.8c2.7-1.1,5.2-2.7,7.2-4.8c2.1-2.1,3.7-4.5,4.9-7.3s1.8-5.8,1.8-9
					C171.4,19.8,170.8,16.8,169.7,14z M162.5,28.8c-0.9,1.8-2,3.4-3.4,4.7s-3,2.4-4.8,3.1c-1.8,0.7-3.7,1.1-5.6,1.1
					c-2.1,0-4-0.4-5.8-1.2s-3.4-1.9-4.8-3.3c-1.4-1.4-2.5-2.9-3.3-4.7s-1.2-3.7-1.2-5.7s0.4-3.9,1.2-5.7c0.8-1.8,1.9-3.4,3.3-4.8
					c1.4-1.3,3-2.4,4.8-3.2s3.8-1.2,5.8-1.2c2.1,0,4,0.4,5.8,1.2s3.4,1.9,4.8,3.2c1.4,1.4,2.5,3,3.3,4.8s1.2,3.7,1.2,5.7
					C163.7,25,163.3,26.9,162.5,28.8z"></path>
	<!--G-->
	<path class="logo-fill l-agro" d="M59.9,30.3h13.8c0.3,0,0.4,0.3,0.3,0.5c-0.6,1.1-1.3,2-2.1,2.8c-1.1,1.1-2.3,1.9-3.5,2.5s-2.5,1-3.7,1.3
					c-1.2,0.2-2.3,0.3-3.3,0.3c-2,0-3.9-0.4-5.7-1.1c-1.8-0.8-3.4-1.8-4.8-3.2c-1.4-1.4-2.5-2.9-3.3-4.7s-1.2-3.7-1.2-5.8s0.4-4,1.2-5.8
					s1.9-3.4,3.3-4.7c1.4-1.3,3-2.4,4.8-3.2S59.4,8,61.4,8c2.2,0,4.3,0.4,6.3,1.3c2,0.8,3.9,2.4,5.9,4.9c0.1,0.1,0.2,0.1,0.3,0.1H82
					c0.3,0,0.4-0.3,0.3-0.5c-1-2.4-2.3-4.5-3.9-6.2c-1.7-1.8-3.5-3.3-5.5-4.4s-4-1.9-6-2.4s-3.8-0.7-5.5-0.7c-3.2,0-6.2,0.6-9,1.8
					s-5.2,2.9-7.3,4.9c-2.1,2.1-3.7,4.5-4.8,7.3c-1.2,2.8-1.7,5.7-1.7,8.8s0.6,6.1,1.7,8.8c1.2,2.8,2.8,5.2,4.8,7.3
					c2.1,2.1,4.5,3.8,7.3,5s5.8,1.8,9,1.8c1.2,0,2.4-0.1,3.7-0.3c1.3-0.2,2.6-0.5,3.8-0.9c1.3-0.4,2.5-1,3.8-1.7
					c1.2-0.7,2.4-1.6,3.5-2.6c0,0,8.2-6.1,6.8-17.4c0-0.2-0.2-0.3-0.4-0.3H59.9c-0.2,0-0.4,0.2-0.4,0.4v7C59.5,30.2,59.7,30.3,59.9,30.3
					z"></path>

	<!--A-->
	<path class="logo-fill l-savia" d="M332.9,44.3l-19.4-44c-0.1-0.3-0.6-0.3-0.7,0l-19.3,44c-0.1,0.3,0.1,0.6,0.4,0.6h6.8c0.2,0,0.3-0.1,0.4-0.2l11.8-25.9
					c0.1-0.3,0.6-0.3,0.7,0l11.9,25.9c0.1,0.1,0.2,0.2,0.4,0.2h6.8C332.8,44.8,333,44.5,332.9,44.3z"></path>
	<!--V-->
	<path class="logo-fill l-savia" d="M242.8,1.4l19.4,44c0.1,0.3,0.6,0.3,0.7,0l19.3-44c0.1-0.3-0.1-0.6-0.4-0.6H275c-0.2,0-0.3,0.1-0.4,0.2l-11.8,25.9
					c-0.1,0.3-0.6,0.3-0.7,0L250.3,1.1c-0.1-0.1-0.2-0.2-0.4-0.2h-6.8C242.9,0.9,242.7,1.2,242.8,1.4z"></path>
	<!--I-->
	<path class="logo-fill l-savia" d="M293.2,1l-18.4,43.6c0,0.1,0,0.2,0.2,0.2h7.3c0.1,0,0.1,0,0.2-0.1l18.4-43.6c0-0.1,0-0.2-0.2-0.2h-7.3
					C293.3,0.9,293.2,0.9,293.2,1z"></path>
	<!--S-->
	<g>
		<path class="logo-fill l-savia" d="M196.6,44.9h-18.7c-0.2,0-0.3-0.2-0.3-0.3v-7c0-0.2,0.2-0.3,0.3-0.3h18.7c2.9,0,5.2-2.2,5.2-5v-0.7c0-2.7-2.3-5-5.2-5h-8.2
					  c-7.2,0-13.1-5.8-13.1-12.9s5.9-12.9,13.1-12.9h18.4c0.2,0,0.3,0.2,0.3,0.3v7c0,0.2-0.2,0.3-0.3,0.3h-18.4c-3,0-5.5,2.4-5.5,5.3
					  s2.5,5.3,5.5,5.3h8.2c7.1,0,12.8,5.7,12.8,12.6v0.7C209.4,39.2,203.7,44.9,196.6,44.9z"></path>
	</g>
	<!--A-PRINCIPAL-->
	<path class="logo-fill l-savia" id="logo-A-p" d="M250.3,44.3l-19.4-44c-0.1-0.3-0.6-0.3-0.7,0l-19.3,44c-0.1,0.3,0.1,0.6,0.4,0.6h6.8c0.2,0,0.3-0.1,0.4-0.2l11.8-25.9
					c0.1-0.3,0.6-0.3,0.7,0l11.9,25.9c0.1,0.1,0.2,0.2,0.4,0.2h6.8C250.2,44.8,250.4,44.5,250.3,44.3z"></path>
	<!--\-->
	<path class="logo-fill" id="logo-st2" d="M314.5,0.7h-7.4c-0.2,0-0.2,0.2-0.2,0.2l18.7,43.9c0,0,0,0,0.2,0h7.4c0.2,0,0.2-0.2,0.2-0.2L314.5,0.7
					C314.7,0.7,314.5,0.7,314.5,0.7"></path>
	<!--/-->
	<path class="logo-fill" id="logo-st1" d="M18.7,0.7L0,44.7c0,0,0,0.2,0.2,0.2h7.4h0.2L26.5,1c0,0,0-0.2-0.2-0.2H18.7C18.9,0.7,18.7,0.7,18.7,0.7"></path>
</svg>